<?xml version="1.0" encoding="UTF-8" standalone="no"?>
<svg
   xmlns:dc="http://purl.org/dc/elements/1.1/"
   xmlns:cc="http://creativecommons.org/ns#"
   xmlns:rdf="http://www.w3.org/1999/02/22-rdf-syntax-ns#"
   xmlns:svg="http://www.w3.org/2000/svg"
   xmlns="http://www.w3.org/2000/svg"
   xmlns:xlink="http://www.w3.org/1999/xlink"
   style="fill:none;stroke:none;stroke-linecap:square;stroke-miterlimit:10"
   height="483.51736"
   width="500.88586"
   id="svg3772"
   stroke-miterlimit="10"
   viewBox="0 0 500.88586 483.51736"
   version="1.1">
  <metadata
     id="metadata4168">
    <rdf:RDF>
      <cc:Work
         rdf:about="">
        <dc:format>image/svg+xml</dc:format>
        <dc:type
           rdf:resource="http://purl.org/dc/dcmitype/StillImage" />
        <dc:title></dc:title>
      </cc:Work>
    </rdf:RDF>
  </metadata>
  <defs
     id="defs4166">
    <linearGradient
       y2="9.7851391"
       x2="45.764671"
       y1="21.868902"
       x1="45.764538"
       spreadMethod="pad"
       gradientTransform="scale(12.083764,12.083764)"
       gradientUnits="userSpaceOnUse"
       id="linearGradient4192"
       xlink:href="#p46.2" />
    <linearGradient
       y2="-19.475971"
       x2="80.549881"
       y1="-13.160989"
       x1="80.549812"
       spreadMethod="pad"
       gradientTransform="matrix(6.3149833,4.587538,-4.587538,6.3149833,0,0)"
       gradientUnits="userSpaceOnUse"
       id="linearGradient4194"
       xlink:href="#p46.4" />
    <linearGradient
       y2="20.453514"
       x2="60.448429"
       y1="32.537277"
       x1="60.448296"
       spreadMethod="pad"
       gradientTransform="scale(12.083764,12.083764)"
       gradientUnits="userSpaceOnUse"
       id="linearGradient4196"
       xlink:href="#p46.6" />
    <linearGradient
       y2="-104.03342"
       x2="31.869684"
       y1="-97.187729"
       x1="31.86961"
       spreadMethod="pad"
       gradientTransform="matrix(-2.2235395,6.8457003,-6.8457003,-2.2235395,0,0)"
       gradientUnits="userSpaceOnUse"
       id="linearGradient4198"
       xlink:href="#p46.8" />
    <linearGradient
       y2="37.715313"
       x2="54.839733"
       y1="49.799076"
       x1="54.839603"
       spreadMethod="pad"
       gradientTransform="scale(12.083764,12.083764)"
       gradientUnits="userSpaceOnUse"
       id="linearGradient4200"
       xlink:href="#p46.10" />
    <linearGradient
       y2="-78.820656"
       x2="-65.755508"
       y1="-71.79985"
       x1="-65.755585"
       spreadMethod="pad"
       gradientTransform="scale(-7.0208112,-7.0208112)"
       gradientUnits="userSpaceOnUse"
       id="linearGradient4202"
       xlink:href="#p46.12" />
    <linearGradient
       y2="37.715313"
       x2="36.68961"
       y1="49.799076"
       x1="36.68948"
       spreadMethod="pad"
       gradientTransform="scale(12.083764,12.083764)"
       gradientUnits="userSpaceOnUse"
       id="linearGradient4204"
       xlink:href="#p46.14" />
    <linearGradient
       y2="22.817129"
       x2="-67.981865"
       y1="29.66283"
       x1="-67.981941"
       spreadMethod="pad"
       gradientTransform="matrix(-2.2235402,-6.8457025,6.8457025,-2.2235402,0,0)"
       gradientUnits="userSpaceOnUse"
       id="linearGradient4206"
       xlink:href="#p46.16" />
    <linearGradient
       y2="20.453514"
       x2="31.080915"
       y1="32.537277"
       x1="31.080782"
       spreadMethod="pad"
       gradientTransform="scale(12.083764,12.083764)"
       gradientUnits="userSpaceOnUse"
       id="linearGradient4208"
       xlink:href="#p46.18" />
    <linearGradient
       y2="52.810417"
       x2="23.650894"
       y1="59.125401"
       x1="23.650826"
       spreadMethod="pad"
       gradientTransform="matrix(6.3149846,-4.5875389,4.5875389,6.3149846,0,0)"
       gradientUnits="userSpaceOnUse"
       id="linearGradient4210"
       xlink:href="#p46.20" />
    <linearGradient
       y2="23.750214"
       x2="45.764591"
       y1="35.833977"
       x1="45.764462"
       spreadMethod="pad"
       gradientTransform="scale(12.083764,12.083764)"
       gradientUnits="userSpaceOnUse"
       id="linearGradient4212"
       xlink:href="#p46.22" />
    <defs
       id="defs3785">
      <filter
         id="shadowFilter-p46.1"
         filterUnits="userSpaceOnUse">
        <feGaussianBlur
           in="SourceAlpha"
           stdDeviation="1.399825"
           result="blur"
           id="feGaussianBlur3788" />
        <feComponentTransfer
           style="color-interpolation-filters:sRGB"
           in="blur"
           id="feComponentTransfer3790">
          <feFuncR
             type="linear"
             slope="0"
             intercept="0.0"
             id="feFuncR3792" />
          <feFuncG
             type="linear"
             slope="0"
             intercept="0.0"
             id="feFuncG3794" />
          <feFuncB
             type="linear"
             slope="0"
             intercept="0.0"
             id="feFuncB3796" />
          <feFuncA
             type="linear"
             slope="0.349"
             intercept="0"
             id="feFuncA3798" />
        </feComponentTransfer>
      </filter>
    </defs>
    <defs
       id="defs3820">
      <filter
         id="shadowFilter-p46.3"
         filterUnits="userSpaceOnUse">
        <feGaussianBlur
           in="SourceAlpha"
           stdDeviation="1.399825"
           result="blur"
           id="feGaussianBlur3823" />
        <feComponentTransfer
           style="color-interpolation-filters:sRGB"
           in="blur"
           id="feComponentTransfer3825">
          <feFuncR
             type="linear"
             slope="0"
             intercept="0.0"
             id="feFuncR3827" />
          <feFuncG
             type="linear"
             slope="0"
             intercept="0.0"
             id="feFuncG3829" />
          <feFuncB
             type="linear"
             slope="0"
             intercept="0.0"
             id="feFuncB3831" />
          <feFuncA
             type="linear"
             slope="0.349"
             intercept="0"
             id="feFuncA3833" />
        </feComponentTransfer>
      </filter>
    </defs>
    <defs
       id="defs3853">
      <filter
         id="shadowFilter-p46.5"
         filterUnits="userSpaceOnUse">
        <feGaussianBlur
           in="SourceAlpha"
           stdDeviation="1.399825"
           result="blur"
           id="feGaussianBlur3856" />
        <feComponentTransfer
           style="color-interpolation-filters:sRGB"
           in="blur"
           id="feComponentTransfer3858">
          <feFuncR
             type="linear"
             slope="0"
             intercept="0.0"
             id="feFuncR3860" />
          <feFuncG
             type="linear"
             slope="0"
             intercept="0.0"
             id="feFuncG3862" />
          <feFuncB
             type="linear"
             slope="0"
             intercept="0.0"
             id="feFuncB3864" />
          <feFuncA
             type="linear"
             slope="0.349"
             intercept="0"
             id="feFuncA3866" />
        </feComponentTransfer>
      </filter>
    </defs>
    <defs
       id="defs3890">
      <filter
         id="shadowFilter-p46.7"
         filterUnits="userSpaceOnUse">
        <feGaussianBlur
           in="SourceAlpha"
           stdDeviation="1.399825"
           result="blur"
           id="feGaussianBlur3893" />
        <feComponentTransfer
           style="color-interpolation-filters:sRGB"
           in="blur"
           id="feComponentTransfer3895">
          <feFuncR
             type="linear"
             slope="0"
             intercept="0.0"
             id="feFuncR3897" />
          <feFuncG
             type="linear"
             slope="0"
             intercept="0.0"
             id="feFuncG3899" />
          <feFuncB
             type="linear"
             slope="0"
             intercept="0.0"
             id="feFuncB3901" />
          <feFuncA
             type="linear"
             slope="0.349"
             intercept="0"
             id="feFuncA3903" />
        </feComponentTransfer>
      </filter>
    </defs>
    <defs
       id="defs3923">
      <filter
         id="shadowFilter-p46.9"
         filterUnits="userSpaceOnUse">
        <feGaussianBlur
           in="SourceAlpha"
           stdDeviation="1.399825"
           result="blur"
           id="feGaussianBlur3926" />
        <feComponentTransfer
           style="color-interpolation-filters:sRGB"
           in="blur"
           id="feComponentTransfer3928">
          <feFuncR
             type="linear"
             slope="0"
             intercept="0.0"
             id="feFuncR3930" />
          <feFuncG
             type="linear"
             slope="0"
             intercept="0.0"
             id="feFuncG3932" />
          <feFuncB
             type="linear"
             slope="0"
             intercept="0.0"
             id="feFuncB3934" />
          <feFuncA
             type="linear"
             slope="0.349"
             intercept="0"
             id="feFuncA3936" />
        </feComponentTransfer>
      </filter>
    </defs>
    <defs
       id="defs3960">
      <filter
         id="shadowFilter-p46.11"
         filterUnits="userSpaceOnUse">
        <feGaussianBlur
           in="SourceAlpha"
           stdDeviation="1.399825"
           result="blur"
           id="feGaussianBlur3963" />
        <feComponentTransfer
           style="color-interpolation-filters:sRGB"
           in="blur"
           id="feComponentTransfer3965">
          <feFuncR
             type="linear"
             slope="0"
             intercept="0.0"
             id="feFuncR3967" />
          <feFuncG
             type="linear"
             slope="0"
             intercept="0.0"
             id="feFuncG3969" />
          <feFuncB
             type="linear"
             slope="0"
             intercept="0.0"
             id="feFuncB3971" />
          <feFuncA
             type="linear"
             slope="0.349"
             intercept="0"
             id="feFuncA3973" />
        </feComponentTransfer>
      </filter>
    </defs>
    <defs
       id="defs3993">
      <filter
         id="shadowFilter-p46.13"
         filterUnits="userSpaceOnUse">
        <feGaussianBlur
           in="SourceAlpha"
           stdDeviation="1.399825"
           result="blur"
           id="feGaussianBlur3996" />
        <feComponentTransfer
           style="color-interpolation-filters:sRGB"
           in="blur"
           id="feComponentTransfer3998">
          <feFuncR
             type="linear"
             slope="0"
             intercept="0.0"
             id="feFuncR4000" />
          <feFuncG
             type="linear"
             slope="0"
             intercept="0.0"
             id="feFuncG4002" />
          <feFuncB
             type="linear"
             slope="0"
             intercept="0.0"
             id="feFuncB4004" />
          <feFuncA
             type="linear"
             slope="0.349"
             intercept="0"
             id="feFuncA4006" />
        </feComponentTransfer>
      </filter>
    </defs>
    <defs
       id="defs4030">
      <filter
         id="shadowFilter-p46.15"
         filterUnits="userSpaceOnUse">
        <feGaussianBlur
           in="SourceAlpha"
           stdDeviation="1.399825"
           result="blur"
           id="feGaussianBlur4033" />
        <feComponentTransfer
           style="color-interpolation-filters:sRGB"
           in="blur"
           id="feComponentTransfer4035">
          <feFuncR
             type="linear"
             slope="0"
             intercept="0.0"
             id="feFuncR4037" />
          <feFuncG
             type="linear"
             slope="0"
             intercept="0.0"
             id="feFuncG4039" />
          <feFuncB
             type="linear"
             slope="0"
             intercept="0.0"
             id="feFuncB4041" />
          <feFuncA
             type="linear"
             slope="0.349"
             intercept="0"
             id="feFuncA4043" />
        </feComponentTransfer>
      </filter>
    </defs>
    <defs
       id="defs4063">
      <filter
         id="shadowFilter-p46.17"
         filterUnits="userSpaceOnUse">
        <feGaussianBlur
           in="SourceAlpha"
           stdDeviation="1.399825"
           result="blur"
           id="feGaussianBlur4066" />
        <feComponentTransfer
           style="color-interpolation-filters:sRGB"
           in="blur"
           id="feComponentTransfer4068">
          <feFuncR
             type="linear"
             slope="0"
             intercept="0.0"
             id="feFuncR4070" />
          <feFuncG
             type="linear"
             slope="0"
             intercept="0.0"
             id="feFuncG4072" />
          <feFuncB
             type="linear"
             slope="0"
             intercept="0.0"
             id="feFuncB4074" />
          <feFuncA
             type="linear"
             slope="0.349"
             intercept="0"
             id="feFuncA4076" />
        </feComponentTransfer>
      </filter>
    </defs>
    <defs
       id="defs4100">
      <filter
         id="shadowFilter-p46.19"
         filterUnits="userSpaceOnUse">
        <feGaussianBlur
           in="SourceAlpha"
           stdDeviation="1.399825"
           result="blur"
           id="feGaussianBlur4103" />
        <feComponentTransfer
           style="color-interpolation-filters:sRGB"
           in="blur"
           id="feComponentTransfer4105">
          <feFuncR
             type="linear"
             slope="0"
             intercept="0.0"
             id="feFuncR4107" />
          <feFuncG
             type="linear"
             slope="0"
             intercept="0.0"
             id="feFuncG4109" />
          <feFuncB
             type="linear"
             slope="0"
             intercept="0.0"
             id="feFuncB4111" />
          <feFuncA
             type="linear"
             slope="0.349"
             intercept="0"
             id="feFuncA4113" />
        </feComponentTransfer>
      </filter>
    </defs>
    <defs
       id="defs4133">
      <filter
         id="shadowFilter-p46.21"
         filterUnits="userSpaceOnUse">
        <feGaussianBlur
           in="SourceAlpha"
           stdDeviation="1.399825"
           result="blur"
           id="feGaussianBlur4136" />
        <feComponentTransfer
           style="color-interpolation-filters:sRGB"
           in="blur"
           id="feComponentTransfer4138">
          <feFuncR
             type="linear"
             slope="0"
             intercept="0.0"
             id="feFuncR4140" />
          <feFuncG
             type="linear"
             slope="0"
             intercept="0.0"
             id="feFuncG4142" />
          <feFuncB
             type="linear"
             slope="0"
             intercept="0.0"
             id="feFuncB4144" />
          <feFuncA
             type="linear"
             slope="0.349"
             intercept="0"
             id="feFuncA4146" />
        </feComponentTransfer>
      </filter>
    </defs>
  </defs>
  <clipPath
     id="p46.0">
    <path
       style="clip-rule:nonzero"
       id="path3775"
       d="M 0,0 960,0 960,720 0,720 0,0 Z" />
  </clipPath>
  <g
     transform="translate(-229.55707,-118.24131)"
     id="g4423">
    <g
       id="p46.1">
      <defs
         id="defs3801">
        <linearGradient
           y2="9.7851391"
           x2="45.764671"
           y1="21.868902"
           x1="45.764538"
           spreadMethod="pad"
           gradientTransform="scale(12.083764,12.083764)"
           gradientUnits="userSpaceOnUse"
           id="p46.2">
          <stop
             id="stop3804"
             stop-color="#371249"
             offset="0.0" />
          <stop
             id="stop3806"
             stop-color="#491760"
             offset="0.8" />
          <stop
             id="stop3808"
             stop-color="#491761"
             offset="1.0" />
        </linearGradient>
      </defs>
      <path
         style="fill:url(#linearGradient4192);fill-rule:nonzero"
         id="path3810"
         d="m 406.99213,191.24918 0,0 c 0,-40.32112 32.68674,-73.00787 73.00787,-73.00787 l 0,0 c 19.36288,0 37.93274,7.69188 51.62439,21.38351 13.69159,13.69164 21.38348,32.26148 21.38348,51.62436 l 0,0 c 0,40.32114 -32.68676,73.00787 -73.00787,73.00787 l 0,0 c -40.32113,0 -73.00787,-32.68674 -73.00787,-73.00787 z" />
    </g>
    <path
       style="fill:#000000;fill-opacity:0;fill-rule:nonzero"
       id="path3812"
       d="m 428.37427,139.62346 103.24408,0 0,103.24409 -103.24408,0 z" />
    <path
       style="fill:#ffffff;fill-rule:nonzero"
       id="path3814"
       d="m 460.69937,198.38551 4.6875,-12.17188 1.73437,0 4.96875,12.17188 -1.82812,0 -1.42188,-3.6875 -5.09375,0 -1.32812,3.6875 -1.71875,0 z m 3.51562,-5 4.125,0 -1.26562,-3.375 q -0.57813,-1.53125 -0.85938,-2.51563 -0.23437,1.17188 -0.65625,2.32813 l -1.34375,3.5625 z m 8.91709,5.73437 1.45312,0.21875 q 0.0937,0.67188 0.51563,0.96875 0.54687,0.42188 1.51562,0.42188 1.03125,0 1.59375,-0.42188 0.5625,-0.40625 0.76563,-1.15625 0.125,-0.45312 0.10937,-1.92187 -0.98437,1.15625 -2.4375,1.15625 -1.8125,0 -2.8125,-1.3125 -1,-1.3125 -1,-3.14063 0,-1.26562 0.45313,-2.32812 0.46875,-1.07813 1.32812,-1.65625 0.875,-0.57813 2.03125,-0.57813 1.5625,0 2.57813,1.26563 l 0,-1.0625 1.375,0 0,7.60937 q 0,2.0625 -0.42188,2.92188 -0.40625,0.85937 -1.32812,1.35937 -0.90625,0.5 -2.23438,0.5 -1.57812,0 -2.54687,-0.71875 -0.96875,-0.70312 -0.9375,-2.125 z m 1.23437,-5.29687 q 0,1.73437 0.6875,2.53125 0.70313,0.79687 1.73438,0.79687 1.03125,0 1.71875,-0.79687 0.70312,-0.79688 0.70312,-2.48438 0,-1.625 -0.71875,-2.4375 -0.71875,-0.82812 -1.73437,-0.82812 -0.98438,0 -1.6875,0.8125 -0.70313,0.8125 -0.70313,2.40625 z m 8.68396,-5.89063 0,-1.71875 1.5,0 0,1.71875 -1.5,0 z m 0,10.45313 0,-8.8125 1.5,0 0,8.8125 -1.5,0 z m 3.81852,0 0,-12.17188 1.48437,0 0,12.17188 -1.48437,0 z m 9.91226,-2.84375 1.54687,0.20312 q -0.375,1.34375 -1.35937,2.09375 -0.98438,0.75 -2.51563,0.75 -1.9375,0 -3.07812,-1.1875 -1.125,-1.20312 -1.125,-3.34375 0,-2.23437 1.14062,-3.45312 1.14063,-1.23438 2.96875,-1.23438 1.78125,0 2.89063,1.20313 1.125,1.20312 1.125,3.39062 0,0.125 -0.0156,0.39063 l -6.5625,0 q 0.0781,1.45312 0.8125,2.23437 0.75,0.76563 1.84375,0.76563 0.82813,0 1.40625,-0.42188 0.57813,-0.4375 0.92188,-1.39062 z m -4.90625,-2.40625 4.92187,0 q -0.0937,-1.10938 -0.5625,-1.67188 -0.71875,-0.85937 -1.85937,-0.85937 -1.01563,0 -1.71875,0.6875 -0.70313,0.6875 -0.78125,1.84375 z" />
    <g
       id="p46.3">
      <defs
         id="defs3836">
        <linearGradient
           y2="-19.475971"
           x2="80.549881"
           y1="-13.160989"
           x1="80.549812"
           spreadMethod="pad"
           gradientTransform="matrix(6.3149833,4.587538,-4.587538,6.3149833,0,0)"
           gradientUnits="userSpaceOnUse"
           id="p46.4">
          <stop
             id="stop3839"
             stop-color="#807a85"
             offset="0.0" />
          <stop
             id="stop3841"
             stop-color="#a9a1af"
             offset="0.8" />
          <stop
             id="stop3843"
             stop-color="#aaa2b0"
             offset="1.0" />
        </linearGradient>
      </defs>
      <path
         style="fill:url(#linearGradient4194);fill-rule:nonzero"
         id="path3845"
         d="m 560.7923,231.67735 15.71655,11.41733 5.79529,-7.97481 1.22833,31.35434 -30.20471,8.51968 5.79523,-7.97482 -15.71649,-11.41731 z" />
    </g>
    <path
       style="fill:#000000;fill-opacity:0;fill-rule:nonzero"
       id="path3847"
       d="m 560.79474,231.67577 22.01575,16 -17.38587,23.9055 -22.01574,-15.99998 z" />
    <g
       id="p46.5">
      <defs
         id="defs3869">
        <linearGradient
           y2="20.453514"
           x2="60.448429"
           y1="32.537277"
           x1="60.448296"
           spreadMethod="pad"
           gradientTransform="scale(12.083764,12.083764)"
           gradientUnits="userSpaceOnUse"
           id="p46.6">
          <stop
             id="stop3872"
             stop-color="#371249"
             offset="0.0" />
          <stop
             id="stop3874"
             stop-color="#491760"
             offset="0.8" />
          <stop
             id="stop3876"
             stop-color="#491761"
             offset="1.0" />
        </linearGradient>
      </defs>
      <path
         style="fill:url(#linearGradient4196);fill-rule:nonzero"
         id="path3878"
         d="m 584.4272,320.1633 0,0 c 0,-40.32114 32.68677,-73.00787 73.00787,-73.00787 l 0,0 c 19.36292,0 37.93274,7.69188 51.62439,21.38351 13.69159,13.69162 21.38348,32.26148 21.38348,51.62436 l 0,0 c 0,40.32114 -32.6867,73.00787 -73.00787,73.00787 l 0,0 c -40.3211,0 -73.00787,-32.68673 -73.00787,-73.00787 z" />
    </g>
    <path
       style="fill:#000000;fill-opacity:0;fill-rule:nonzero"
       id="path3880"
       d="m 605.8094,268.5376 103.24408,0 0,103.24408 -103.24408,0 z" />
    <path
       style="fill:#ffffff;fill-rule:nonzero"
       id="path3882"
       d="m 623.5992,313.534 1.60937,0.40625 q -0.51562,1.98437 -1.82812,3.03125 -1.3125,1.03125 -3.21875,1.03125 -1.96875,0 -3.20313,-0.79688 -1.21875,-0.79687 -1.875,-2.3125 -0.64062,-1.53125 -0.64062,-3.26562 0,-1.90625 0.71875,-3.3125 0.73437,-1.42188 2.07812,-2.15625 1.34375,-0.73438 2.95313,-0.73438 1.82812,0 3.0625,0.9375 1.25,0.92188 1.73437,2.60938 l -1.57812,0.375 q -0.42188,-1.32813 -1.23438,-1.9375 -0.79687,-0.60938 -2.01562,-0.60938 -1.40625,0 -2.35938,0.67188 -0.9375,0.67187 -1.32812,1.8125 -0.375,1.125 -0.375,2.32812 0,1.5625 0.45312,2.71875 0.45313,1.15625 1.40625,1.73438 0.96875,0.5625 2.07813,0.5625 1.34375,0 2.28125,-0.78125 0.9375,-0.78125 1.28125,-2.3125 z m 3.07629,-0.14063 q 0,-2.45312 1.35938,-3.625 1.14062,-0.98437 2.78125,-0.98437 1.8125,0 2.96875,1.20312 1.15625,1.1875 1.15625,3.28125 0,1.70313 -0.51563,2.6875 -0.51562,0.96875 -1.48437,1.51563 -0.96875,0.53125 -2.125,0.53125 -1.85938,0 -3,-1.1875 -1.14063,-1.1875 -1.14063,-3.42188 z m 1.53125,0 q 0,1.6875 0.73438,2.53125 0.75,0.84375 1.875,0.84375 1.10937,0 1.84375,-0.84375 0.73437,-0.84375 0.73437,-2.57812 0,-1.64063 -0.75,-2.48438 -0.73437,-0.84375 -1.82812,-0.84375 -1.125,0 -1.875,0.84375 -0.73438,0.84375 -0.73438,2.53125 z m 8.66834,4.40625 0,-8.8125 1.34375,0 0,1.25 q 0.96875,-1.45312 2.79687,-1.45312 0.79688,0 1.46875,0.29687 0.67188,0.28125 1,0.75 0.32813,0.45313 0.46875,1.09375 0.0781,0.42188 0.0781,1.45313 l 0,5.42187 -1.48438,0 0,-5.35937 q 0,-0.92188 -0.1875,-1.375 -0.17187,-0.45313 -0.625,-0.71875 -0.4375,-0.26563 -1.03125,-0.26563 -0.95312,0 -1.65625,0.60938 -0.6875,0.59375 -0.6875,2.29687 l 0,4.8125 -1.48437,0 z m 12.90271,-1.34375 0.20312,1.32813 q -0.625,0.125 -1.125,0.125 -0.8125,0 -1.26562,-0.25 -0.4375,-0.26563 -0.625,-0.67188 -0.1875,-0.42187 -0.1875,-1.76562 l 0,-5.07813 -1.09375,0 0,-1.15625 1.09375,0 0,-2.1875 1.48437,-0.89062 0,3.07812 1.51563,0 0,1.15625 -1.51563,0 0,5.15625 q 0,0.64063 0.0781,0.82813 0.0781,0.17187 0.25,0.28125 0.1875,0.10937 0.53125,0.10937 0.23437,0 0.65625,-0.0625 z m 1.5487,-9.10937 0,-1.71875 1.5,0 0,1.71875 -1.5,0 z m 0,10.45312 0,-8.8125 1.5,0 0,8.8125 -1.5,0 z m 3.8498,0 0,-8.8125 1.34375,0 0,1.25 q 0.96875,-1.45312 2.79687,-1.45312 0.79688,0 1.46875,0.29687 0.67188,0.28125 1,0.75 0.32813,0.45313 0.46875,1.09375 0.0781,0.42188 0.0781,1.45313 l 0,5.42187 -1.48438,0 0,-5.35937 q 0,-0.92188 -0.1875,-1.375 -0.17187,-0.45313 -0.625,-0.71875 -0.4375,-0.26563 -1.03125,-0.26563 -0.95312,0 -1.65625,0.60938 -0.6875,0.59375 -0.6875,2.29687 l 0,4.8125 -1.48437,0 z m 15.40271,0 0,-1.29687 q -1.01563,1.5 -2.79688,1.5 -0.76562,0 -1.45312,-0.29688 -0.67188,-0.3125 -1,-0.75 -0.32813,-0.45312 -0.46875,-1.10937 -0.0781,-0.45313 -0.0781,-1.40625 l 0,-5.45313 1.48438,0 0,4.89063 q 0,1.17187 0.0937,1.57812 0.14062,0.57813 0.59375,0.92188 0.46875,0.32812 1.14062,0.32812 0.67188,0 1.25,-0.34375 0.59375,-0.34375 0.82813,-0.9375 0.25,-0.59375 0.25,-1.71875 l 0,-4.71875 1.5,0 0,8.8125 -1.34375,0 z m 3.30896,-4.40625 q 0,-2.45312 1.35937,-3.625 1.14063,-0.98437 2.78125,-0.98437 1.8125,0 2.96875,1.20312 1.15625,1.1875 1.15625,3.28125 0,1.70313 -0.51562,2.6875 -0.51563,0.96875 -1.48438,1.51563 -0.96875,0.53125 -2.125,0.53125 -1.85937,0 -3,-1.1875 -1.14062,-1.1875 -1.14062,-3.42188 z m 1.53125,0 q 0,1.6875 0.73437,2.53125 0.75,0.84375 1.875,0.84375 1.10938,0 1.84375,-0.84375 0.73438,-0.84375 0.73438,-2.57812 0,-1.64063 -0.75,-2.48438 -0.73438,-0.84375 -1.82813,-0.84375 -1.125,0 -1.875,0.84375 -0.73437,0.84375 -0.73437,2.53125 z m 14.43396,4.40625 0,-1.29687 q -1.01563,1.5 -2.79688,1.5 -0.76562,0 -1.45312,-0.29688 -0.67188,-0.3125 -1,-0.75 -0.32813,-0.45312 -0.46875,-1.10937 -0.0781,-0.45313 -0.0781,-1.40625 l 0,-5.45313 1.48438,0 0,4.89063 q 0,1.17187 0.0937,1.57812 0.14062,0.57813 0.59375,0.92188 0.46875,0.32812 1.14062,0.32812 0.67188,0 1.25,-0.34375 0.59375,-0.34375 0.82813,-0.9375 0.25,-0.59375 0.25,-1.71875 l 0,-4.71875 1.5,0 0,8.8125 -1.34375,0 z m 3.26208,-2.625 1.48438,-0.23437 q 0.125,0.89062 0.6875,1.35937 0.57812,0.46875 1.59375,0.46875 1.03125,0 1.53125,-0.42187 0.5,-0.42188 0.5,-0.98438 0,-0.5 -0.4375,-0.79687 -0.3125,-0.1875 -1.53125,-0.5 -1.64063,-0.42188 -2.28125,-0.71875 -0.64063,-0.29688 -0.96875,-0.82813 -0.32813,-0.54687 -0.32813,-1.1875 0,-0.59375 0.26563,-1.09375 0.28125,-0.5 0.75,-0.84375 0.34375,-0.25 0.9375,-0.42187 0.60937,-0.1875 1.29687,-0.1875 1.04688,0 1.82813,0.29687 0.78125,0.29688 1.15625,0.8125 0.375,0.51563 0.51562,1.35938 l -1.46875,0.20312 q -0.0937,-0.67187 -0.57812,-1.04687 -0.46875,-0.39063 -1.34375,-0.39063 -1.03125,0 -1.46875,0.34375 -0.4375,0.32813 -0.4375,0.78125 0,0.29688 0.1875,0.53125 0.17187,0.23438 0.5625,0.39063 0.23437,0.0937 1.32812,0.39062 1.57813,0.42188 2.20313,0.6875 0.625,0.26563 0.98437,0.78125 0.35938,0.51563 0.35938,1.28125 0,0.75 -0.4375,1.42188 -0.4375,0.65625 -1.26563,1.01562 -0.8125,0.35938 -1.84375,0.35938 -1.71875,0 -2.625,-0.71875 -0.90625,-0.71875 -1.15625,-2.10938 z" />
    <path
       style="fill:#ffffff;fill-rule:nonzero"
       id="path3884"
       d="m 618.0667,336.79962 0,-12.17188 1.625,0 0,12.17188 -1.625,0 z m 4.36121,0 0,-8.8125 1.34375,0 0,1.25 q 0.96875,-1.45313 2.79687,-1.45313 0.79688,0 1.46875,0.29688 0.67188,0.28125 1,0.75 0.32813,0.45312 0.46875,1.09375 0.0781,0.42187 0.0781,1.45312 l 0,5.42188 -1.48438,0 0,-5.35938 q 0,-0.92187 -0.1875,-1.375 -0.17187,-0.45312 -0.625,-0.71875 -0.4375,-0.26562 -1.03125,-0.26562 -0.95312,0 -1.65625,0.60937 -0.6875,0.59375 -0.6875,2.29688 l 0,4.8125 -1.48437,0 z m 12.90271,-1.34375 0.20312,1.32812 q -0.625,0.125 -1.125,0.125 -0.8125,0 -1.26562,-0.25 -0.4375,-0.26562 -0.625,-0.67187 -0.1875,-0.42188 -0.1875,-1.76563 l 0,-5.07812 -1.09375,0 0,-1.15625 1.09375,0 0,-2.1875 1.48437,-0.89063 0,3.07813 1.51563,0 0,1.15625 -1.51563,0 0,5.15625 q 0,0.64062 0.0781,0.82812 0.0781,0.17188 0.25,0.28125 0.1875,0.10938 0.53125,0.10938 0.23437,0 0.65625,-0.0625 z m 7.57995,-1.5 1.54688,0.20312 q -0.375,1.34375 -1.35938,2.09375 -0.98437,0.75 -2.51562,0.75 -1.9375,0 -3.07813,-1.1875 -1.125,-1.20312 -1.125,-3.34375 0,-2.23437 1.14063,-3.45312 1.14062,-1.23438 2.96875,-1.23438 1.78125,0 2.89062,1.20313 1.125,1.20312 1.125,3.39062 0,0.125 -0.0156,0.39063 l -6.5625,0 q 0.0781,1.45312 0.8125,2.23437 0.75,0.76563 1.84375,0.76563 0.82812,0 1.40625,-0.42188 0.57812,-0.4375 0.92187,-1.39062 z m -4.90625,-2.40625 4.92188,0 q -0.0937,-1.10938 -0.5625,-1.67188 -0.71875,-0.85937 -1.85938,-0.85937 -1.01562,0 -1.71875,0.6875 -0.70312,0.6875 -0.78125,1.84375 z m 8.23084,5.98437 1.45312,0.21875 q 0.0937,0.67188 0.51563,0.96875 0.54687,0.42188 1.51562,0.42188 1.03125,0 1.59375,-0.42188 0.5625,-0.40625 0.76563,-1.15625 0.125,-0.45312 0.10937,-1.92187 -0.98437,1.15625 -2.4375,1.15625 -1.8125,0 -2.8125,-1.3125 -1,-1.3125 -1,-3.14063 0,-1.26562 0.45313,-2.32812 0.46875,-1.07813 1.32812,-1.65625 0.875,-0.57813 2.03125,-0.57813 1.5625,0 2.57813,1.26563 l 0,-1.0625 1.375,0 0,7.60937 q 0,2.0625 -0.42188,2.92188 -0.40625,0.85937 -1.32812,1.35937 -0.90625,0.5 -2.23438,0.5 -1.57812,0 -2.54687,-0.71875 -0.96875,-0.70312 -0.9375,-2.125 z m 1.23437,-5.29687 q 0,1.73437 0.6875,2.53125 0.70313,0.79687 1.73438,0.79687 1.03125,0 1.71875,-0.79687 0.70312,-0.79688 0.70312,-2.48438 0,-1.625 -0.71875,-2.4375 -0.71875,-0.82812 -1.73437,-0.82812 -0.98438,0 -1.6875,0.8125 -0.70313,0.8125 -0.70313,2.40625 z m 8.66834,4.5625 0,-8.8125 1.34375,0 0,1.32812 q 0.51562,-0.9375 0.9375,-1.23437 0.4375,-0.29688 0.96875,-0.29688 0.75,0 1.53125,0.48438 l -0.51563,1.39062 q -0.54687,-0.32812 -1.09375,-0.32812 -0.48437,0 -0.875,0.29687 -0.39062,0.29688 -0.5625,0.8125 -0.25,0.79688 -0.25,1.75 l 0,4.60938 -1.48437,0 z m 11.53601,-1.09375 q -0.82813,0.71875 -1.60938,1.01562 -0.76562,0.28125 -1.64062,0.28125 -1.45313,0 -2.23438,-0.70312 -0.78125,-0.71875 -0.78125,-1.82813 0,-0.64062 0.29688,-1.17187 0.29687,-0.54688 0.76562,-0.85938 0.48438,-0.32812 1.07813,-0.5 0.45312,-0.10937 1.32812,-0.21875 1.8125,-0.21875 2.67188,-0.51562 0,-0.3125 0,-0.39063 0,-0.90625 -0.42188,-1.28125 -0.5625,-0.51562 -1.70312,-0.51562 -1.04688,0 -1.54688,0.375 -0.5,0.35937 -0.75,1.3125 l -1.45312,-0.20313 q 0.20312,-0.9375 0.65625,-1.51562 0.45312,-0.57813 1.3125,-0.89063 0.85937,-0.3125 2,-0.3125 1.14062,0 1.84375,0.26563 0.70312,0.26562 1.03125,0.67187 0.32812,0.40625 0.46875,1.01563 0.0781,0.375 0.0781,1.375 l 0,2 q 0,2.07812 0.0937,2.64062 0.0937,0.54688 0.375,1.04688 l -1.5625,0 q -0.23437,-0.46875 -0.29687,-1.09375 z m -0.125,-3.32813 q -0.8125,0.32813 -2.4375,0.5625 -0.92188,0.125 -1.3125,0.29688 -0.375,0.17187 -0.59375,0.5 -0.20313,0.3125 -0.20313,0.70312 0,0.59375 0.45313,1 0.45312,0.39063 1.32812,0.39063 0.85938,0 1.53125,-0.375 0.67188,-0.39063 1,-1.03125 0.23438,-0.51563 0.23438,-1.5 l 0,-0.54688 z m 7.27771,3.07813 0.20312,1.32812 q -0.625,0.125 -1.125,0.125 -0.8125,0 -1.26562,-0.25 -0.4375,-0.26562 -0.625,-0.67187 -0.1875,-0.42188 -0.1875,-1.76563 l 0,-5.07812 -1.09375,0 0,-1.15625 1.09375,0 0,-2.1875 1.48437,-0.89063 0,3.07813 1.51563,0 0,1.15625 -1.51563,0 0,5.15625 q 0,0.64062 0.0781,0.82812 0.0781,0.17188 0.25,0.28125 0.1875,0.10938 0.53125,0.10938 0.23437,0 0.65625,-0.0625 z m 1.5487,-9.10938 0,-1.71875 1.5,0 0,1.71875 -1.5,0 z m 0,10.45313 0,-8.8125 1.5,0 0,8.8125 -1.5,0 z m 3.28724,-4.40625 q 0,-2.45313 1.35937,-3.625 1.14063,-0.98438 2.78125,-0.98438 1.8125,0 2.96875,1.20313 1.15625,1.1875 1.15625,3.28125 0,1.70312 -0.51562,2.6875 -0.51563,0.96875 -1.48438,1.51562 -0.96875,0.53125 -2.125,0.53125 -1.85937,0 -3,-1.1875 -1.14062,-1.1875 -1.14062,-3.42187 z m 1.53125,0 q 0,1.6875 0.73437,2.53125 0.75,0.84375 1.875,0.84375 1.10938,0 1.84375,-0.84375 0.73438,-0.84375 0.73438,-2.57813 0,-1.64062 -0.75,-2.48437 -0.73438,-0.84375 -1.82813,-0.84375 -1.125,0 -1.875,0.84375 -0.73437,0.84375 -0.73437,2.53125 z m 8.66833,4.40625 0,-8.8125 1.34375,0 0,1.25 q 0.96875,-1.45313 2.79688,-1.45313 0.79687,0 1.46875,0.29688 0.67187,0.28125 1,0.75 0.32812,0.45312 0.46875,1.09375 0.0781,0.42187 0.0781,1.45312 l 0,5.42188 -1.48437,0 0,-5.35938 q 0,-0.92187 -0.1875,-1.375 -0.17188,-0.45312 -0.625,-0.71875 -0.4375,-0.26562 -1.03125,-0.26562 -0.95313,0 -1.65625,0.60937 -0.6875,0.59375 -0.6875,2.29688 l 0,4.8125 -1.48438,0 z" />
    <g
       id="p46.7">
      <defs
         id="defs3906">
        <linearGradient
           y2="-104.03342"
           x2="31.869684"
           y1="-97.187729"
           x1="31.86961"
           spreadMethod="pad"
           gradientTransform="matrix(-2.2235395,6.8457003,-6.8457003,-2.2235395,0,0)"
           gradientUnits="userSpaceOnUse"
           id="p46.8">
          <stop
             id="stop3909"
             stop-color="#807a85"
             offset="0.0" />
          <stop
             id="stop3911"
             stop-color="#a9a1af"
             offset="0.8" />
          <stop
             id="stop3913"
             stop-color="#aaa2b0"
             offset="1.0" />
        </linearGradient>
      </defs>
      <path
         style="fill:url(#linearGradient4198);fill-rule:nonzero"
         id="path3915"
         d="m 643.9466,409.50037 -6,18.47244 9.37323,3.04251 -29.43304,10.86615 -17.43311,-26.07876 9.37323,3.04254 6,-18.47244 z" />
    </g>
    <path
       style="fill:#000000;fill-opacity:0;fill-rule:nonzero"
       id="path3917"
       d="m 607.42224,426.22937 8.40948,-25.85828 28.12598,9.13385 -8.40942,25.85828 z" />
    <g
       id="p46.9">
      <defs
         id="defs3939">
        <linearGradient
           y2="37.715313"
           x2="54.839733"
           y1="49.799076"
           x1="54.839603"
           spreadMethod="pad"
           gradientTransform="scale(12.083764,12.083764)"
           gradientUnits="userSpaceOnUse"
           id="p46.10">
          <stop
             id="stop3942"
             stop-color="#371249"
             offset="0.0" />
          <stop
             id="stop3944"
             stop-color="#491760"
             offset="0.8" />
          <stop
             id="stop3946"
             stop-color="#491761"
             offset="1.0" />
        </linearGradient>
      </defs>
      <path
         style="fill:url(#linearGradient4200);fill-rule:nonzero"
         id="path3948"
         d="m 516.653,528.7508 0,0 c 0,-40.32111 32.68677,-73.00784 73.00787,-73.00784 l 0,0 c 19.36292,0 37.93274,7.69186 51.62439,21.38351 13.69165,13.69162 21.38348,32.26148 21.38348,51.62433 l 0,0 c 0,40.32117 -32.6867,73.00787 -73.00787,73.00787 l 0,0 c -40.3211,0 -73.00787,-32.6867 -73.00787,-73.00787 z" />
    </g>
    <path
       style="fill:#000000;fill-opacity:0;fill-rule:nonzero"
       id="path3950"
       d="m 538.03516,477.1251 103.24408,0 0,103.24411 -103.24408,0 z" />
    <path
       style="fill:#ffffff;fill-rule:nonzero"
       id="path3952"
       d="m 547.72284,526.38715 4.6875,-12.17187 1.73438,0 4.96875,12.17187 -1.82813,0 -1.42187,-3.6875 -5.09375,0 -1.32813,3.6875 -1.71875,0 z m 3.51563,-5 4.125,0 -1.26563,-3.375 q -0.57812,-1.53125 -0.85937,-2.51562 -0.23438,1.17187 -0.65625,2.32812 l -1.34375,3.5625 z m 14.96398,5 0,-1.29687 q -1.01562,1.5 -2.79687,1.5 -0.76563,0 -1.45313,-0.29688 -0.67187,-0.3125 -1,-0.75 -0.32812,-0.45312 -0.46875,-1.10937 -0.0781,-0.45313 -0.0781,-1.40625 l 0,-5.45313 1.48437,0 0,4.89063 q 0,1.17187 0.0937,1.57812 0.14063,0.57813 0.59375,0.92188 0.46875,0.32812 1.14063,0.32812 0.67187,0 1.25,-0.34375 0.59375,-0.34375 0.82812,-0.9375 0.25,-0.59375 0.25,-1.71875 l 0,-4.71875 1.5,0 0,8.8125 -1.34375,0 z m 7.13709,-1.34375 0.20312,1.32813 q -0.625,0.125 -1.125,0.125 -0.8125,0 -1.26562,-0.25 -0.4375,-0.26563 -0.625,-0.67188 -0.1875,-0.42187 -0.1875,-1.76562 l 0,-5.07813 -1.09375,0 0,-1.15625 1.09375,0 0,-2.1875 1.48437,-0.89062 0,3.07812 1.51563,0 0,1.15625 -1.51563,0 0,5.15625 q 0,0.64063 0.0781,0.82813 0.0781,0.17187 0.25,0.28125 0.1875,0.10937 0.53125,0.10937 0.23437,0 0.65625,-0.0625 z m 0.98621,-3.0625 q 0,-2.45312 1.35937,-3.625 1.14063,-0.98437 2.78125,-0.98437 1.8125,0 2.96875,1.20312 1.15625,1.1875 1.15625,3.28125 0,1.70313 -0.51562,2.6875 -0.51563,0.96875 -1.48438,1.51563 -0.96875,0.53125 -2.125,0.53125 -1.85937,0 -3,-1.1875 -1.14062,-1.1875 -1.14062,-3.42188 z m 1.53125,0 q 0,1.6875 0.73437,2.53125 0.75,0.84375 1.875,0.84375 1.10938,0 1.84375,-0.84375 0.73438,-0.84375 0.73438,-2.57812 0,-1.64063 -0.75,-2.48438 -0.73438,-0.84375 -1.82813,-0.84375 -1.125,0 -1.875,0.84375 -0.73437,0.84375 -0.73437,2.53125 z m 8.66833,4.40625 0,-8.8125 1.32813,0 0,1.23438 q 0.42187,-0.64063 1.10937,-1.03125 0.6875,-0.40625 1.5625,-0.40625 0.98438,0 1.60938,0.40625 0.625,0.40625 0.89062,1.14062 1.04688,-1.54687 2.71875,-1.54687 1.3125,0 2.01563,0.73437 0.70312,0.71875 0.70312,2.23438 l 0,6.04687 -1.48437,0 0,-5.54687 q 0,-0.90625 -0.14063,-1.29688 -0.14062,-0.39062 -0.53125,-0.625 -0.375,-0.25 -0.89062,-0.25 -0.9375,0 -1.54688,0.625 -0.60937,0.60938 -0.60937,1.96875 l 0,5.125 -1.5,0 0,-5.73437 q 0,-0.98438 -0.375,-1.48438 -0.35938,-0.5 -1.1875,-0.5 -0.625,0 -1.17188,0.32813 -0.53125,0.32812 -0.78125,0.96875 -0.23437,0.64062 -0.23437,1.84375 l 0,4.57812 -1.48438,0 z m 20.18445,-1.09375 q -0.82813,0.71875 -1.60938,1.01563 -0.76562,0.28125 -1.64062,0.28125 -1.45313,0 -2.23438,-0.70313 -0.78125,-0.71875 -0.78125,-1.82812 0,-0.64063 0.29688,-1.17188 0.29687,-0.54687 0.76562,-0.85937 0.48438,-0.32813 1.07813,-0.5 0.45312,-0.10938 1.32812,-0.21875 1.8125,-0.21875 2.67188,-0.51563 0,-0.3125 0,-0.39062 0,-0.90625 -0.42188,-1.28125 -0.5625,-0.51563 -1.70312,-0.51563 -1.04688,0 -1.54688,0.375 -0.5,0.35938 -0.75,1.3125 l -1.45312,-0.20312 q 0.20312,-0.9375 0.65625,-1.51563 0.45312,-0.57812 1.3125,-0.89062 0.85937,-0.3125 2,-0.3125 1.14062,0 1.84375,0.26562 0.70312,0.26563 1.03125,0.67188 0.32812,0.40625 0.46875,1.01562 0.0781,0.375 0.0781,1.375 l 0,2 q 0,2.07813 0.0937,2.64063 0.0937,0.54687 0.375,1.04687 l -1.5625,0 q -0.23437,-0.46875 -0.29687,-1.09375 z m -0.125,-3.32812 q -0.8125,0.32812 -2.4375,0.5625 -0.92188,0.125 -1.3125,0.29687 -0.375,0.17188 -0.59375,0.5 -0.20313,0.3125 -0.20313,0.70313 0,0.59375 0.45313,1 0.45312,0.39062 1.32812,0.39062 0.85938,0 1.53125,-0.375 0.67188,-0.39062 1,-1.03125 0.23438,-0.51562 0.23438,-1.5 l 0,-0.54687 z m 7.27771,3.07812 0.20312,1.32813 q -0.625,0.125 -1.125,0.125 -0.8125,0 -1.26562,-0.25 -0.4375,-0.26563 -0.625,-0.67188 -0.1875,-0.42187 -0.1875,-1.76562 l 0,-5.07813 -1.09375,0 0,-1.15625 1.09375,0 0,-2.1875 1.48437,-0.89062 0,3.07812 1.51563,0 0,1.15625 -1.51563,0 0,5.15625 q 0,0.64063 0.0781,0.82813 0.0781,0.17187 0.25,0.28125 0.1875,0.10937 0.53125,0.10937 0.23437,0 0.65625,-0.0625 z m 7.57995,-1.5 1.54688,0.20313 q -0.375,1.34375 -1.35938,2.09375 -0.98437,0.75 -2.51562,0.75 -1.9375,0 -3.07813,-1.1875 -1.125,-1.20313 -1.125,-3.34375 0,-2.23438 1.14063,-3.45313 1.14062,-1.23437 2.96875,-1.23437 1.78125,0 2.89062,1.20312 1.125,1.20313 1.125,3.39063 0,0.125 -0.0156,0.39062 l -6.5625,0 q 0.0781,1.45313 0.8125,2.23438 0.75,0.76562 1.84375,0.76562 0.82812,0 1.40625,-0.42187 0.57812,-0.4375 0.92187,-1.39063 z m -4.90625,-2.40625 4.92188,0 q -0.0937,-1.10937 -0.5625,-1.67187 -0.71875,-0.85938 -1.85938,-0.85938 -1.01562,0 -1.71875,0.6875 -0.70312,0.6875 -0.78125,1.84375 z m 14.23084,5.25 0,-1.10937 q -0.84375,1.3125 -2.46875,1.3125 -1.04688,0 -1.9375,-0.57813 -0.89063,-0.59375 -1.375,-1.625 -0.48438,-1.04687 -0.48438,-2.40625 0,-1.3125 0.4375,-2.39062 0.45313,-1.07813 1.32813,-1.64063 0.875,-0.57812 1.96875,-0.57812 0.79687,0 1.40625,0.34375 0.625,0.32812 1.01562,0.875 l 0,-4.375 1.48438,0 0,12.17187 -1.375,0 z m -4.73438,-4.40625 q 0,1.70313 0.71875,2.54688 0.71875,0.82812 1.6875,0.82812 0.98438,0 1.65625,-0.79687 0.6875,-0.79688 0.6875,-2.45313 0,-1.79687 -0.70312,-2.64062 -0.6875,-0.85938 -1.70313,-0.85938 -1,0 -1.67187,0.8125 -0.67188,0.8125 -0.67188,2.5625 z" />
    <path
       style="fill:#ffffff;fill-rule:nonzero"
       id="path3954"
       d="m 565.6514,545.38715 0,-10.73437 -4,0 0,-1.4375 9.64062,0 0,1.4375 -4.03125,0 0,10.73437 -1.60937,0 z m 13.33472,-2.84375 1.54687,0.20313 q -0.375,1.34375 -1.35937,2.09375 -0.98438,0.75 -2.51563,0.75 -1.9375,0 -3.07812,-1.1875 -1.125,-1.20313 -1.125,-3.34375 0,-2.23438 1.14062,-3.45313 1.14063,-1.23437 2.96875,-1.23437 1.78125,0 2.89063,1.20312 1.125,1.20313 1.125,3.39063 0,0.125 -0.0156,0.39062 l -6.5625,0 q 0.0781,1.45313 0.8125,2.23438 0.75,0.76562 1.84375,0.76562 0.82813,0 1.40625,-0.42187 0.57813,-0.4375 0.92188,-1.39063 z m -4.90625,-2.40625 4.92187,0 q -0.0937,-1.10937 -0.5625,-1.67187 -0.71875,-0.85938 -1.85937,-0.85938 -1.01563,0 -1.71875,0.6875 -0.70313,0.6875 -0.78125,1.84375 z m 7.90271,2.625 1.48437,-0.23437 q 0.125,0.89062 0.6875,1.35937 0.57813,0.46875 1.59375,0.46875 1.03125,0 1.53125,-0.42187 0.5,-0.42188 0.5,-0.98438 0,-0.5 -0.4375,-0.79687 -0.3125,-0.1875 -1.53125,-0.5 -1.64062,-0.42188 -2.28125,-0.71875 -0.64062,-0.29688 -0.96875,-0.82813 -0.32812,-0.54687 -0.32812,-1.1875 0,-0.59375 0.26562,-1.09375 0.28125,-0.5 0.75,-0.84375 0.34375,-0.25 0.9375,-0.42187 0.60938,-0.1875 1.29688,-0.1875 1.04687,0 1.82812,0.29687 0.78125,0.29688 1.15625,0.8125 0.375,0.51563 0.51563,1.35938 l -1.46875,0.20312 q -0.0937,-0.67187 -0.57813,-1.04687 -0.46875,-0.39063 -1.34375,-0.39063 -1.03125,0 -1.46875,0.34375 -0.4375,0.32813 -0.4375,0.78125 0,0.29688 0.1875,0.53125 0.17188,0.23438 0.5625,0.39063 0.23438,0.0937 1.32813,0.39062 1.57812,0.42188 2.20312,0.6875 0.625,0.26563 0.98438,0.78125 0.35937,0.51563 0.35937,1.28125 0,0.75 -0.4375,1.42188 -0.4375,0.65625 -1.26562,1.01562 -0.8125,0.35938 -1.84375,0.35938 -1.71875,0 -2.625,-0.71875 -0.90625,-0.71875 -1.15625,-2.10938 z m 12.53906,1.28125 0.20312,1.32813 q -0.625,0.125 -1.125,0.125 -0.8125,0 -1.26562,-0.25 -0.4375,-0.26563 -0.625,-0.67188 -0.1875,-0.42187 -0.1875,-1.76562 l 0,-5.07813 -1.09375,0 0,-1.15625 1.09375,0 0,-2.1875 1.48437,-0.89062 0,3.07812 1.51563,0 0,1.15625 -1.51563,0 0,5.15625 q 0,0.64063 0.0781,0.82813 0.0781,0.17187 0.25,0.28125 0.1875,0.10937 0.53125,0.10937 0.23437,0 0.65625,-0.0625 z m 1.54864,-9.10937 0,-1.71875 1.5,0 0,1.71875 -1.5,0 z m 0,10.45312 0,-8.8125 1.5,0 0,8.8125 -1.5,0 z m 3.8498,0 0,-8.8125 1.34375,0 0,1.25 q 0.96875,-1.45312 2.79687,-1.45312 0.79688,0 1.46875,0.29687 0.67188,0.28125 1,0.75 0.32813,0.45313 0.46875,1.09375 0.0781,0.42188 0.0781,1.45313 l 0,5.42187 -1.48438,0 0,-5.35937 q 0,-0.92188 -0.1875,-1.375 -0.17187,-0.45313 -0.625,-0.71875 -0.4375,-0.26563 -1.03125,-0.26563 -0.95312,0 -1.65625,0.60938 -0.6875,0.59375 -0.6875,2.29687 l 0,4.8125 -1.48437,0 z m 9.35583,0.73438 1.45313,0.21875 q 0.0937,0.67187 0.51562,0.96875 0.54688,0.42187 1.51563,0.42187 1.03125,0 1.59375,-0.42187 0.5625,-0.40625 0.76562,-1.15625 0.125,-0.45313 0.10938,-1.92188 -0.98438,1.15625 -2.4375,1.15625 -1.8125,0 -2.8125,-1.3125 -1,-1.3125 -1,-3.14062 0,-1.26563 0.45312,-2.32813 0.46875,-1.07812 1.32813,-1.65625 0.875,-0.57812 2.03125,-0.57812 1.5625,0 2.57812,1.26562 l 0,-1.0625 1.375,0 0,7.60938 q 0,2.0625 -0.42187,2.92187 -0.40625,0.85938 -1.32813,1.35938 -0.90625,0.5 -2.23437,0.5 -1.57813,0 -2.54688,-0.71875 -0.96875,-0.70313 -0.9375,-2.125 z m 1.23438,-5.29688 q 0,1.73438 0.6875,2.53125 0.70312,0.79688 1.73437,0.79688 1.03125,0 1.71875,-0.79688 0.70313,-0.79687 0.70313,-2.48437 0,-1.625 -0.71875,-2.4375 -0.71875,-0.82813 -1.73438,-0.82813 -0.98437,0 -1.6875,0.8125 -0.70312,0.8125 -0.70312,2.40625 z" />
    <g
       id="p46.11">
      <defs
         id="defs3976">
        <linearGradient
           y2="-78.820656"
           x2="-65.755508"
           y1="-71.79985"
           x1="-65.755585"
           spreadMethod="pad"
           gradientTransform="scale(-7.0208112,-7.0208112)"
           gradientUnits="userSpaceOnUse"
           id="p46.12">
          <stop
             id="stop3979"
             stop-color="#807a85"
             offset="0.0" />
          <stop
             id="stop3981"
             stop-color="#a9a1af"
             offset="0.8" />
          <stop
             id="stop3983"
             stop-color="#aaa2b0"
             offset="1.0" />
        </linearGradient>
      </defs>
      <path
         style="fill:url(#linearGradient4202);fill-rule:nonzero"
         id="path3985"
         d="m 500.52368,543.5267 -19.43307,0 0,9.85828 -19.43308,-24.64569 19.43308,-24.64566 0,9.85824 19.43307,0 z" />
    </g>
    <path
       style="fill:#000000;fill-opacity:0;fill-rule:nonzero"
       id="path3987"
       d="m 473.32388,513.96313 27.21258,0 0,29.57477 -27.21258,0 z" />
    <g
       id="p46.13">
      <defs
         id="defs4009">
        <linearGradient
           y2="37.715313"
           x2="36.68961"
           y1="49.799076"
           x1="36.68948"
           spreadMethod="pad"
           gradientTransform="scale(12.083764,12.083764)"
           gradientUnits="userSpaceOnUse"
           id="p46.14">
          <stop
             id="stop4012"
             stop-color="#371249"
             offset="0.0" />
          <stop
             id="stop4014"
             stop-color="#491760"
             offset="0.8" />
          <stop
             id="stop4016"
             stop-color="#491761"
             offset="1.0" />
        </linearGradient>
      </defs>
      <path
         style="fill:url(#linearGradient4204);fill-rule:nonzero"
         id="path4018"
         d="m 297.33124,528.7508 0,0 c 0,-40.32111 32.68674,-73.00784 73.00787,-73.00784 l 0,0 c 19.36288,0 37.93274,7.69186 51.62436,21.38351 13.69165,13.69162 21.38351,32.26148 21.38351,51.62433 l 0,0 c 0,40.32117 -32.68673,73.00787 -73.00787,73.00787 l 0,0 c -40.32113,0 -73.00787,-32.6867 -73.00787,-73.00787 z" />
    </g>
    <path
       style="fill:#000000;fill-opacity:0;fill-rule:nonzero"
       id="path4020"
       d="m 318.71338,477.1251 103.24408,0 0,103.24411 -103.24408,0 z" />
    <path
       style="fill:#ffffff;fill-rule:nonzero"
       id="path4022"
       d="m 328.40106,526.38715 4.6875,-12.17187 1.73437,0 4.96875,12.17187 -1.82812,0 -1.42188,-3.6875 -5.09375,0 -1.32812,3.6875 -1.71875,0 z m 3.51562,-5 4.125,0 -1.26562,-3.375 q -0.57813,-1.53125 -0.85938,-2.51562 -0.23437,1.17187 -0.65625,2.32812 l -1.34375,3.5625 z m 14.96396,5 0,-1.29687 q -1.01562,1.5 -2.79687,1.5 -0.76563,0 -1.45313,-0.29688 -0.67187,-0.3125 -1,-0.75 -0.32812,-0.45312 -0.46875,-1.10937 -0.0781,-0.45313 -0.0781,-1.40625 l 0,-5.45313 1.48437,0 0,4.89063 q 0,1.17187 0.0937,1.57812 0.14063,0.57813 0.59375,0.92188 0.46875,0.32812 1.14063,0.32812 0.67187,0 1.25,-0.34375 0.59375,-0.34375 0.82812,-0.9375 0.25,-0.59375 0.25,-1.71875 l 0,-4.71875 1.5,0 0,8.8125 -1.34375,0 z m 7.13709,-1.34375 0.20312,1.32813 q -0.625,0.125 -1.125,0.125 -0.8125,0 -1.26562,-0.25 -0.4375,-0.26563 -0.625,-0.67188 -0.1875,-0.42187 -0.1875,-1.76562 l 0,-5.07813 -1.09375,0 0,-1.15625 1.09375,0 0,-2.1875 1.48437,-0.89062 0,3.07812 1.51563,0 0,1.15625 -1.51563,0 0,5.15625 q 0,0.64063 0.0781,0.82813 0.0781,0.17187 0.25,0.28125 0.1875,0.10937 0.53125,0.10937 0.23437,0 0.65625,-0.0625 z m 0.98621,-3.0625 q 0,-2.45312 1.35937,-3.625 1.14063,-0.98437 2.78125,-0.98437 1.8125,0 2.96875,1.20312 1.15625,1.1875 1.15625,3.28125 0,1.70313 -0.51562,2.6875 -0.51563,0.96875 -1.48438,1.51563 -0.96875,0.53125 -2.125,0.53125 -1.85937,0 -3,-1.1875 -1.14062,-1.1875 -1.14062,-3.42188 z m 1.53125,0 q 0,1.6875 0.73437,2.53125 0.75,0.84375 1.875,0.84375 1.10938,0 1.84375,-0.84375 0.73438,-0.84375 0.73438,-2.57812 0,-1.64063 -0.75,-2.48438 -0.73438,-0.84375 -1.82813,-0.84375 -1.125,0 -1.875,0.84375 -0.73437,0.84375 -0.73437,2.53125 z m 8.66833,4.40625 0,-8.8125 1.32813,0 0,1.23438 q 0.42187,-0.64063 1.10937,-1.03125 0.6875,-0.40625 1.5625,-0.40625 0.98438,0 1.60938,0.40625 0.625,0.40625 0.89062,1.14062 1.04688,-1.54687 2.71875,-1.54687 1.3125,0 2.01563,0.73437 0.70312,0.71875 0.70312,2.23438 l 0,6.04687 -1.48437,0 0,-5.54687 q 0,-0.90625 -0.14063,-1.29688 -0.14062,-0.39062 -0.53125,-0.625 -0.375,-0.25 -0.89062,-0.25 -0.9375,0 -1.54688,0.625 -0.60937,0.60938 -0.60937,1.96875 l 0,5.125 -1.5,0 0,-5.73437 q 0,-0.98438 -0.375,-1.48438 -0.35938,-0.5 -1.1875,-0.5 -0.625,0 -1.17188,0.32813 -0.53125,0.32812 -0.78125,0.96875 -0.23437,0.64062 -0.23437,1.84375 l 0,4.57812 -1.48438,0 z m 20.18445,-1.09375 q -0.82813,0.71875 -1.60938,1.01563 -0.76562,0.28125 -1.64062,0.28125 -1.45313,0 -2.23438,-0.70313 -0.78125,-0.71875 -0.78125,-1.82812 0,-0.64063 0.29688,-1.17188 0.29687,-0.54687 0.76562,-0.85937 0.48438,-0.32813 1.07813,-0.5 0.45312,-0.10938 1.32812,-0.21875 1.8125,-0.21875 2.67188,-0.51563 0,-0.3125 0,-0.39062 0,-0.90625 -0.42188,-1.28125 -0.5625,-0.51563 -1.70312,-0.51563 -1.04688,0 -1.54688,0.375 -0.5,0.35938 -0.75,1.3125 l -1.45312,-0.20312 q 0.20312,-0.9375 0.65625,-1.51563 0.45312,-0.57812 1.3125,-0.89062 0.85937,-0.3125 2,-0.3125 1.14062,0 1.84375,0.26562 0.70312,0.26563 1.03125,0.67188 0.32812,0.40625 0.46875,1.01562 0.0781,0.375 0.0781,1.375 l 0,2 q 0,2.07813 0.0937,2.64063 0.0937,0.54687 0.375,1.04687 l -1.5625,0 q -0.23437,-0.46875 -0.29687,-1.09375 z m -0.125,-3.32812 q -0.8125,0.32812 -2.4375,0.5625 -0.92188,0.125 -1.3125,0.29687 -0.375,0.17188 -0.59375,0.5 -0.20313,0.3125 -0.20313,0.70313 0,0.59375 0.45313,1 0.45312,0.39062 1.32812,0.39062 0.85938,0 1.53125,-0.375 0.67188,-0.39062 1,-1.03125 0.23438,-0.51562 0.23438,-1.5 l 0,-0.54687 z m 7.27771,3.07812 0.20312,1.32813 q -0.625,0.125 -1.125,0.125 -0.8125,0 -1.26562,-0.25 -0.4375,-0.26563 -0.625,-0.67188 -0.1875,-0.42187 -0.1875,-1.76562 l 0,-5.07813 -1.09375,0 0,-1.15625 1.09375,0 0,-2.1875 1.48437,-0.89062 0,3.07812 1.51563,0 0,1.15625 -1.51563,0 0,5.15625 q 0,0.64063 0.0781,0.82813 0.0781,0.17187 0.25,0.28125 0.1875,0.10937 0.53125,0.10937 0.23437,0 0.65625,-0.0625 z m 7.57995,-1.5 1.54688,0.20313 q -0.375,1.34375 -1.35938,2.09375 -0.98437,0.75 -2.51562,0.75 -1.9375,0 -3.07813,-1.1875 -1.125,-1.20313 -1.125,-3.34375 0,-2.23438 1.14063,-3.45313 1.14062,-1.23437 2.96875,-1.23437 1.78125,0 2.89062,1.20312 1.125,1.20313 1.125,3.39063 0,0.125 -0.0156,0.39062 l -6.5625,0 q 0.0781,1.45313 0.8125,2.23438 0.75,0.76562 1.84375,0.76562 0.82812,0 1.40625,-0.42187 0.57812,-0.4375 0.92187,-1.39063 z m -4.90625,-2.40625 4.92188,0 q -0.0937,-1.10937 -0.5625,-1.67187 -0.71875,-0.85938 -1.85938,-0.85938 -1.01562,0 -1.71875,0.6875 -0.70312,0.6875 -0.78125,1.84375 z m 14.23084,5.25 0,-1.10937 q -0.84375,1.3125 -2.46875,1.3125 -1.04688,0 -1.9375,-0.57813 -0.89063,-0.59375 -1.375,-1.625 -0.48438,-1.04687 -0.48438,-2.40625 0,-1.3125 0.4375,-2.39062 0.45313,-1.07813 1.32813,-1.64063 0.875,-0.57812 1.96875,-0.57812 0.79687,0 1.40625,0.34375 0.625,0.32812 1.01562,0.875 l 0,-4.375 1.48438,0 0,12.17187 -1.375,0 z m -4.73438,-4.40625 q 0,1.70313 0.71875,2.54688 0.71875,0.82812 1.6875,0.82812 0.98438,0 1.65625,-0.79687 0.6875,-0.79688 0.6875,-2.45313 0,-1.79687 -0.70312,-2.64062 -0.6875,-0.85938 -1.70313,-0.85938 -1,0 -1.67187,0.8125 -0.67188,0.8125 -0.67188,2.5625 z" />
    <path
       style="fill:#ffffff;fill-rule:nonzero"
       id="path4024"
       d="m 325.417,545.38715 0,-12.17187 4.1875,0 q 1.42187,0 2.17187,0.17187 1.04688,0.25 1.78125,0.875 0.96875,0.8125 1.4375,2.07813 0.48438,1.26562 0.48438,2.89062 0,1.39063 -0.32813,2.46875 -0.32812,1.0625 -0.82812,1.76563 -0.5,0.70312 -1.10938,1.10937 -0.59375,0.39063 -1.45312,0.60938 -0.84375,0.20312 -1.95313,0.20312 l -4.39062,0 z m 1.60937,-1.4375 2.59375,0 q 1.20313,0 1.89063,-0.21875 0.6875,-0.23437 1.09375,-0.64062 0.57812,-0.5625 0.89062,-1.53125 0.32813,-0.96875 0.32813,-2.34375 0,-1.90625 -0.64063,-2.9375 -0.625,-1.03125 -1.51562,-1.375 -0.64063,-0.25 -2.07813,-0.25 l -2.5625,0 0,9.29687 z m 16.7482,-1.40625 1.54688,0.20313 q -0.375,1.34375 -1.35938,2.09375 -0.98437,0.75 -2.51562,0.75 -1.9375,0 -3.07813,-1.1875 -1.125,-1.20313 -1.125,-3.34375 0,-2.23438 1.14063,-3.45313 1.14062,-1.23437 2.96875,-1.23437 1.78125,0 2.89062,1.20312 1.125,1.20313 1.125,3.39063 0,0.125 -0.0156,0.39062 l -6.5625,0 q 0.0781,1.45313 0.8125,2.23438 0.75,0.76562 1.84375,0.76562 0.82812,0 1.40625,-0.42187 0.57812,-0.4375 0.92187,-1.39063 z m -4.90625,-2.40625 4.92188,0 q -0.0937,-1.10937 -0.5625,-1.67187 -0.71875,-0.85938 -1.85938,-0.85938 -1.01562,0 -1.71875,0.6875 -0.70312,0.6875 -0.78125,1.84375 z m 8.51209,8.625 0,-12.1875 1.35937,0 0,1.14063 q 0.48438,-0.67188 1.07813,-1 0.60937,-0.34375 1.46875,-0.34375 1.14062,0 2,0.57812 0.85937,0.57813 1.29687,1.64063 0.45313,1.0625 0.45313,2.32812 0,1.34375 -0.5,2.4375 -0.48438,1.07813 -1.40625,1.65625 -0.92188,0.57813 -1.9375,0.57813 -0.75,0 -1.34375,-0.3125 -0.59375,-0.32813 -0.98438,-0.79688 l 0,4.28125 -1.48437,0 z m 1.34375,-7.73437 q 0,1.70312 0.6875,2.51562 0.70312,0.8125 1.67187,0.8125 1,0 1.70313,-0.84375 0.71875,-0.84375 0.71875,-2.60937 0,-1.6875 -0.70313,-2.51563 -0.6875,-0.84375 -1.65625,-0.84375 -0.95312,0 -1.6875,0.89063 -0.73437,0.89062 -0.73437,2.59375 z m 8.26208,4.35937 0,-12.17187 1.48438,0 0,12.17187 -1.48438,0 z m 3.31852,-4.40625 q 0,-2.45312 1.35937,-3.625 1.14063,-0.98437 2.78125,-0.98437 1.8125,0 2.96875,1.20312 1.15625,1.1875 1.15625,3.28125 0,1.70313 -0.51562,2.6875 -0.51563,0.96875 -1.48438,1.51563 -0.96875,0.53125 -2.125,0.53125 -1.85937,0 -3,-1.1875 -1.14062,-1.1875 -1.14062,-3.42188 z m 1.53125,0 q 0,1.6875 0.73437,2.53125 0.75,0.84375 1.875,0.84375 1.10938,0 1.84375,-0.84375 0.73438,-0.84375 0.73438,-2.57812 0,-1.64063 -0.75,-2.48438 -0.73438,-0.84375 -1.82813,-0.84375 -1.125,0 -1.875,0.84375 -0.73437,0.84375 -0.73437,2.53125 z m 8.59021,7.79688 -0.15625,-1.39063 q 0.48437,0.125 0.85937,0.125 0.48438,0 0.78125,-0.17187 0.3125,-0.15625 0.5,-0.45313 0.14063,-0.23437 0.45313,-1.125 0.0469,-0.125 0.14062,-0.35937 l -3.34375,-8.82813 1.60938,0 1.82812,5.10938 q 0.35938,0.96875 0.64063,2.03125 0.25,-1.03125 0.60937,-2 l 1.89063,-5.14063 1.48437,0 -3.34375,8.96875 q -0.54687,1.45313 -0.84375,2 -0.39062,0.73438 -0.90625,1.07813 -0.51562,0.34375 -1.23437,0.34375 -0.4375,0 -0.96875,-0.1875 z m 8.74218,-3.39063 0,-8.8125 1.32813,0 0,1.23438 q 0.42187,-0.64063 1.10937,-1.03125 0.6875,-0.40625 1.5625,-0.40625 0.98438,0 1.60938,0.40625 0.625,0.40625 0.89062,1.14062 1.04688,-1.54687 2.71875,-1.54687 1.3125,0 2.01563,0.73437 0.70312,0.71875 0.70312,2.23438 l 0,6.04687 -1.48437,0 0,-5.54687 q 0,-0.90625 -0.14063,-1.29688 -0.14062,-0.39062 -0.53125,-0.625 -0.375,-0.25 -0.89062,-0.25 -0.9375,0 -1.54688,0.625 -0.60937,0.60938 -0.60937,1.96875 l 0,5.125 -1.5,0 0,-5.73437 q 0,-0.98438 -0.375,-1.48438 -0.35938,-0.5 -1.1875,-0.5 -0.625,0 -1.17188,0.32813 -0.53125,0.32812 -0.78125,0.96875 -0.23437,0.64062 -0.23437,1.84375 l 0,4.57812 -1.48438,0 z m 20.46573,-2.84375 1.54688,0.20313 q -0.375,1.34375 -1.35938,2.09375 -0.98437,0.75 -2.51562,0.75 -1.9375,0 -3.07813,-1.1875 -1.125,-1.20313 -1.125,-3.34375 0,-2.23438 1.14063,-3.45313 1.14062,-1.23437 2.96875,-1.23437 1.78125,0 2.89062,1.20312 1.125,1.20313 1.125,3.39063 0,0.125 -0.0156,0.39062 l -6.5625,0 q 0.0781,1.45313 0.8125,2.23438 0.75,0.76562 1.84375,0.76562 0.82812,0 1.40625,-0.42187 0.57812,-0.4375 0.92187,-1.39063 z m -4.90625,-2.40625 4.92188,0 q -0.0937,-1.10937 -0.5625,-1.67187 -0.71875,-0.85938 -1.85938,-0.85938 -1.01562,0 -1.71875,0.6875 -0.70312,0.6875 -0.78125,1.84375 z m 8.51209,5.25 0,-8.8125 1.34375,0 0,1.25 q 0.96875,-1.45312 2.79687,-1.45312 0.79688,0 1.46875,0.29687 0.67188,0.28125 1,0.75 0.32813,0.45313 0.46875,1.09375 0.0781,0.42188 0.0781,1.45313 l 0,5.42187 -1.48438,0 0,-5.35937 q 0,-0.92188 -0.1875,-1.375 -0.17187,-0.45313 -0.625,-0.71875 -0.4375,-0.26563 -1.03125,-0.26563 -0.95312,0 -1.65625,0.60938 -0.6875,0.59375 -0.6875,2.29687 l 0,4.8125 -1.48437,0 z m 12.90271,-1.34375 0.20312,1.32813 q -0.625,0.125 -1.125,0.125 -0.8125,0 -1.26562,-0.25 -0.4375,-0.26563 -0.625,-0.67188 -0.1875,-0.42187 -0.1875,-1.76562 l 0,-5.07813 -1.09375,0 0,-1.15625 1.09375,0 0,-2.1875 1.48437,-0.89062 0,3.07812 1.51563,0 0,1.15625 -1.51563,0 0,5.15625 q 0,0.64063 0.0781,0.82813 0.0781,0.17187 0.25,0.28125 0.1875,0.10937 0.53125,0.10937 0.23437,0 0.65625,-0.0625 z" />
    <g
       id="p46.15">
      <defs
         id="defs4046">
        <linearGradient
           y2="22.817129"
           x2="-67.981865"
           y1="29.66283"
           x1="-67.981941"
           spreadMethod="pad"
           gradientTransform="matrix(-2.2235402,-6.8457025,6.8457025,-2.2235402,0,0)"
           gradientUnits="userSpaceOnUse"
           id="p46.16">
          <stop
             id="stop4049"
             stop-color="#807a85"
             offset="0.0" />
          <stop
             id="stop4051"
             stop-color="#a9a1af"
             offset="0.8" />
          <stop
             id="stop4053"
             stop-color="#aaa2b0"
             offset="1.0" />
        </linearGradient>
      </defs>
      <path
         style="fill:url(#linearGradient4206);fill-rule:nonzero"
         id="path4055"
         d="m 328.73163,448.5472 -6,-18.47244 -9.37323,3.04251 17.43307,-26.07874 29.43305,10.86615 -9.3732,3.04251 6,18.47245 z" />
    </g>
    <path
       style="fill:#000000;fill-opacity:0;fill-rule:nonzero"
       id="path4057"
       d="m 348.44562,413.5392 8.40945,25.85825 -28.12597,9.13388 -8.40946,-25.85828 z" />
    <g
       id="p46.17">
      <defs
         id="defs4079">
        <linearGradient
           y2="20.453514"
           x2="31.080915"
           y1="32.537277"
           x1="31.080782"
           spreadMethod="pad"
           gradientTransform="scale(12.083764,12.083764)"
           gradientUnits="userSpaceOnUse"
           id="p46.18">
          <stop
             id="stop4082"
             stop-color="#371249"
             offset="0.0" />
          <stop
             id="stop4084"
             stop-color="#491760"
             offset="0.8" />
          <stop
             id="stop4086"
             stop-color="#491761"
             offset="1.0" />
        </linearGradient>
      </defs>
      <path
         style="fill:url(#linearGradient4208);fill-rule:nonzero"
         id="path4088"
         d="m 229.55707,320.1633 0,0 c 0,-40.32114 32.68674,-73.00787 73.00787,-73.00787 l 0,0 c 19.36288,0 37.93274,7.69188 51.62436,21.38351 13.69162,13.69162 21.38351,32.26148 21.38351,51.62436 l 0,0 c 0,40.32114 -32.68673,73.00787 -73.00787,73.00787 l 0,0 c -40.32113,0 -73.00787,-32.68673 -73.00787,-73.00787 z" />
    </g>
    <path
       style="fill:#000000;fill-opacity:0;fill-rule:nonzero"
       id="path4090"
       d="m 250.93921,268.5376 103.24411,0 0,103.24408 -103.24411,0 z" />
    <path
       style="fill:#ffffff;fill-rule:nonzero"
       id="path4092"
       d="m 260.6269,317.79962 4.6875,-12.17188 1.73437,0 4.96875,12.17188 -1.82812,0 -1.42188,-3.6875 -5.09375,0 -1.32812,3.6875 -1.71875,0 z m 3.51562,-5 4.125,0 -1.26562,-3.375 q -0.57813,-1.53125 -0.85938,-2.51563 -0.23437,1.17188 -0.65625,2.32813 l -1.34375,3.5625 z m 14.96396,5 0,-1.29688 q -1.01562,1.5 -2.79687,1.5 -0.76563,0 -1.45313,-0.29687 -0.67187,-0.3125 -1,-0.75 -0.32812,-0.45313 -0.46875,-1.10938 -0.0781,-0.45312 -0.0781,-1.40625 l 0,-5.45312 1.48437,0 0,4.89062 q 0,1.17188 0.0937,1.57813 0.14063,0.57812 0.59375,0.92187 0.46875,0.32813 1.14063,0.32813 0.67187,0 1.25,-0.34375 0.59375,-0.34375 0.82812,-0.9375 0.25,-0.59375 0.25,-1.71875 l 0,-4.71875 1.5,0 0,8.8125 -1.34375,0 z m 7.13709,-1.34375 0.20312,1.32812 q -0.625,0.125 -1.125,0.125 -0.8125,0 -1.26562,-0.25 -0.4375,-0.26562 -0.625,-0.67187 -0.1875,-0.42188 -0.1875,-1.76563 l 0,-5.07812 -1.09375,0 0,-1.15625 1.09375,0 0,-2.1875 1.48437,-0.89063 0,3.07813 1.51563,0 0,1.15625 -1.51563,0 0,5.15625 q 0,0.64062 0.0781,0.82812 0.0781,0.17188 0.25,0.28125 0.1875,0.10938 0.53125,0.10938 0.23437,0 0.65625,-0.0625 z m 0.98621,-3.0625 q 0,-2.45313 1.35937,-3.625 1.14063,-0.98438 2.78125,-0.98438 1.8125,0 2.96875,1.20313 1.15625,1.1875 1.15625,3.28125 0,1.70312 -0.51562,2.6875 -0.51563,0.96875 -1.48438,1.51562 -0.96875,0.53125 -2.125,0.53125 -1.85937,0 -3,-1.1875 -1.14062,-1.1875 -1.14062,-3.42187 z m 1.53125,0 q 0,1.6875 0.73437,2.53125 0.75,0.84375 1.875,0.84375 1.10938,0 1.84375,-0.84375 0.73438,-0.84375 0.73438,-2.57813 0,-1.64062 -0.75,-2.48437 -0.73438,-0.84375 -1.82813,-0.84375 -1.125,0 -1.875,0.84375 -0.73437,0.84375 -0.73437,2.53125 z m 8.66833,4.40625 0,-8.8125 1.32813,0 0,1.23437 q 0.42187,-0.64062 1.10937,-1.03125 0.6875,-0.40625 1.5625,-0.40625 0.98438,0 1.60938,0.40625 0.625,0.40625 0.89062,1.14063 1.04688,-1.54688 2.71875,-1.54688 1.3125,0 2.01563,0.73438 0.70312,0.71875 0.70312,2.23437 l 0,6.04688 -1.48437,0 0,-5.54688 q 0,-0.90625 -0.14063,-1.29687 -0.14062,-0.39063 -0.53125,-0.625 -0.375,-0.25 -0.89062,-0.25 -0.9375,0 -1.54688,0.625 -0.60937,0.60937 -0.60937,1.96875 l 0,5.125 -1.5,0 0,-5.73438 q 0,-0.98437 -0.375,-1.48437 -0.35938,-0.5 -1.1875,-0.5 -0.625,0 -1.17188,0.32812 -0.53125,0.32813 -0.78125,0.96875 -0.23437,0.64063 -0.23437,1.84375 l 0,4.57813 -1.48438,0 z m 20.18445,-1.09375 q -0.82813,0.71875 -1.60938,1.01562 -0.76562,0.28125 -1.64062,0.28125 -1.45313,0 -2.23438,-0.70312 -0.78125,-0.71875 -0.78125,-1.82813 0,-0.64062 0.29688,-1.17187 0.29687,-0.54688 0.76562,-0.85938 0.48438,-0.32812 1.07813,-0.5 0.45312,-0.10937 1.32812,-0.21875 1.8125,-0.21875 2.67188,-0.51562 0,-0.3125 0,-0.39063 0,-0.90625 -0.42188,-1.28125 -0.5625,-0.51562 -1.70312,-0.51562 -1.04688,0 -1.54688,0.375 -0.5,0.35937 -0.75,1.3125 l -1.45312,-0.20313 q 0.20312,-0.9375 0.65625,-1.51562 0.45312,-0.57813 1.3125,-0.89063 0.85937,-0.3125 2,-0.3125 1.14062,0 1.84375,0.26563 0.70312,0.26562 1.03125,0.67187 0.32812,0.40625 0.46875,1.01563 0.0781,0.375 0.0781,1.375 l 0,2 q 0,2.07812 0.0937,2.64062 0.0937,0.54688 0.375,1.04688 l -1.5625,0 q -0.23437,-0.46875 -0.29687,-1.09375 z m -0.125,-3.32813 q -0.8125,0.32813 -2.4375,0.5625 -0.92188,0.125 -1.3125,0.29688 -0.375,0.17187 -0.59375,0.5 -0.20313,0.3125 -0.20313,0.70312 0,0.59375 0.45313,1 0.45312,0.39063 1.32812,0.39063 0.85938,0 1.53125,-0.375 0.67188,-0.39063 1,-1.03125 0.23438,-0.51563 0.23438,-1.5 l 0,-0.54688 z m 7.27771,3.07813 0.20312,1.32812 q -0.625,0.125 -1.125,0.125 -0.8125,0 -1.26562,-0.25 -0.4375,-0.26562 -0.625,-0.67187 -0.1875,-0.42188 -0.1875,-1.76563 l 0,-5.07812 -1.09375,0 0,-1.15625 1.09375,0 0,-2.1875 1.48437,-0.89063 0,3.07813 1.51563,0 0,1.15625 -1.51563,0 0,5.15625 q 0,0.64062 0.0781,0.82812 0.0781,0.17188 0.25,0.28125 0.1875,0.10938 0.53125,0.10938 0.23437,0 0.65625,-0.0625 z m 7.57995,-1.5 1.54688,0.20312 q -0.375,1.34375 -1.35938,2.09375 -0.98437,0.75 -2.51562,0.75 -1.9375,0 -3.07813,-1.1875 -1.125,-1.20312 -1.125,-3.34375 0,-2.23437 1.14063,-3.45312 1.14062,-1.23438 2.96875,-1.23438 1.78125,0 2.89062,1.20313 1.125,1.20312 1.125,3.39062 0,0.125 -0.0156,0.39063 l -6.5625,0 q 0.0781,1.45312 0.8125,2.23437 0.75,0.76563 1.84375,0.76563 0.82812,0 1.40625,-0.42188 0.57812,-0.4375 0.92187,-1.39062 z m -4.90625,-2.40625 4.92188,0 q -0.0937,-1.10938 -0.5625,-1.67188 -0.71875,-0.85937 -1.85938,-0.85937 -1.01562,0 -1.71875,0.6875 -0.70312,0.6875 -0.78125,1.84375 z m 14.23084,5.25 0,-1.10938 q -0.84375,1.3125 -2.46875,1.3125 -1.04688,0 -1.9375,-0.57812 -0.89063,-0.59375 -1.375,-1.625 -0.48438,-1.04688 -0.48438,-2.40625 0,-1.3125 0.4375,-2.39063 0.45313,-1.07812 1.32813,-1.64062 0.875,-0.57813 1.96875,-0.57813 0.79687,0 1.40625,0.34375 0.625,0.32813 1.01562,0.875 l 0,-4.375 1.48438,0 0,12.17188 -1.375,0 z m -4.73438,-4.40625 q 0,1.70312 0.71875,2.54687 0.71875,0.82813 1.6875,0.82813 0.98438,0 1.65625,-0.79688 0.6875,-0.79687 0.6875,-2.45312 0,-1.79688 -0.70312,-2.64063 -0.6875,-0.85937 -1.70313,-0.85937 -1,0 -1.67187,0.8125 -0.67188,0.8125 -0.67188,2.5625 z" />
    <path
       style="fill:#ffffff;fill-rule:nonzero"
       id="path4094"
       d="m 256.67828,336.79962 0,-12.17188 4.59375,0 q 1.20312,0 1.84375,0.125 0.90625,0.14063 1.5,0.5625 0.60937,0.42188 0.96875,1.1875 0.375,0.75 0.375,1.64063 0,1.5625 -0.98438,2.64062 -0.98437,1.0625 -3.5625,1.0625 l -3.125,0 0,4.95313 -1.60937,0 z m 1.60937,-6.39063 3.14063,0 q 1.5625,0 2.21875,-0.57812 0.65625,-0.57813 0.65625,-1.625 0,-0.76563 -0.39063,-1.3125 -0.375,-0.54688 -1.01562,-0.71875 -0.40625,-0.10938 -1.5,-0.10938 l -3.10938,0 0,4.34375 z m 9.74521,6.39063 0,-8.8125 1.34375,0 0,1.32812 q 0.51563,-0.9375 0.9375,-1.23437 0.4375,-0.29688 0.96875,-0.29688 0.75,0 1.53125,0.48438 l -0.51562,1.39062 q -0.54688,-0.32812 -1.09375,-0.32812 -0.48438,0 -0.875,0.29687 -0.39063,0.29688 -0.5625,0.8125 -0.25,0.79688 -0.25,1.75 l 0,4.60938 -1.48438,0 z m 5.22355,-4.40625 q 0,-2.45313 1.35937,-3.625 1.14063,-0.98438 2.78125,-0.98438 1.8125,0 2.96875,1.20313 1.15625,1.1875 1.15625,3.28125 0,1.70312 -0.51562,2.6875 -0.51563,0.96875 -1.48438,1.51562 -0.96875,0.53125 -2.125,0.53125 -1.85937,0 -3,-1.1875 -1.14062,-1.1875 -1.14062,-3.42187 z m 1.53125,0 q 0,1.6875 0.73437,2.53125 0.75,0.84375 1.875,0.84375 1.10938,0 1.84375,-0.84375 0.73438,-0.84375 0.73438,-2.57813 0,-1.64062 -0.75,-2.48437 -0.73438,-0.84375 -1.82813,-0.84375 -1.125,0 -1.875,0.84375 -0.73437,0.84375 -0.73437,2.53125 z m 11.10583,4.40625 -3.34375,-8.8125 1.57813,0 1.89062,5.28125 q 0.3125,0.84375 0.5625,1.76562 0.20313,-0.6875 0.5625,-1.67187 l 1.95313,-5.375 1.53125,0 -3.32813,8.8125 -1.40625,0 z m 6.22656,-10.45313 0,-1.71875 1.5,0 0,1.71875 -1.5,0 z m 0,10.45313 0,-8.8125 1.5,0 0,8.8125 -1.5,0 z m 3.24039,-2.625 1.48437,-0.23438 q 0.125,0.89063 0.6875,1.35938 0.57813,0.46875 1.59375,0.46875 1.03125,0 1.53125,-0.42188 0.5,-0.42187 0.5,-0.98437 0,-0.5 -0.4375,-0.79688 -0.3125,-0.1875 -1.53125,-0.5 -1.64062,-0.42187 -2.28125,-0.71875 -0.64062,-0.29687 -0.96875,-0.82812 -0.32812,-0.54688 -0.32812,-1.1875 0,-0.59375 0.26562,-1.09375 0.28125,-0.5 0.75,-0.84375 0.34375,-0.25 0.9375,-0.42188 0.60938,-0.1875 1.29688,-0.1875 1.04687,0 1.82812,0.29688 0.78125,0.29687 1.15625,0.8125 0.375,0.51562 0.51563,1.35937 l -1.46875,0.20313 q -0.0937,-0.67188 -0.57813,-1.04688 -0.46875,-0.39062 -1.34375,-0.39062 -1.03125,0 -1.46875,0.34375 -0.4375,0.32812 -0.4375,0.78125 0,0.29687 0.1875,0.53125 0.17188,0.23437 0.5625,0.39062 0.23438,0.0937 1.32813,0.39063 1.57812,0.42187 2.20312,0.6875 0.625,0.26562 0.98438,0.78125 0.35937,0.51562 0.35937,1.28125 0,0.75 -0.4375,1.42187 -0.4375,0.65625 -1.26562,1.01563 -0.8125,0.35937 -1.84375,0.35937 -1.71875,0 -2.625,-0.71875 -0.90625,-0.71875 -1.15625,-2.10937 z m 9.27344,-7.82813 0,-1.71875 1.5,0 0,1.71875 -1.5,0 z m 0,10.45313 0,-8.8125 1.5,0 0,8.8125 -1.5,0 z m 3.28726,-4.40625 q 0,-2.45313 1.35937,-3.625 1.14063,-0.98438 2.78125,-0.98438 1.8125,0 2.96875,1.20313 1.15625,1.1875 1.15625,3.28125 0,1.70312 -0.51562,2.6875 -0.51563,0.96875 -1.48438,1.51562 -0.96875,0.53125 -2.125,0.53125 -1.85937,0 -3,-1.1875 -1.14062,-1.1875 -1.14062,-3.42187 z m 1.53125,0 q 0,1.6875 0.73437,2.53125 0.75,0.84375 1.875,0.84375 1.10938,0 1.84375,-0.84375 0.73438,-0.84375 0.73438,-2.57813 0,-1.64062 -0.75,-2.48437 -0.73438,-0.84375 -1.82813,-0.84375 -1.125,0 -1.875,0.84375 -0.73437,0.84375 -0.73437,2.53125 z m 8.66833,4.40625 0,-8.8125 1.34375,0 0,1.25 q 0.96875,-1.45313 2.79688,-1.45313 0.79687,0 1.46875,0.29688 0.67187,0.28125 1,0.75 0.32812,0.45312 0.46875,1.09375 0.0781,0.42187 0.0781,1.45312 l 0,5.42188 -1.48437,0 0,-5.35938 q 0,-0.92187 -0.1875,-1.375 -0.17188,-0.45312 -0.625,-0.71875 -0.4375,-0.26562 -1.03125,-0.26562 -0.95313,0 -1.65625,0.60937 -0.6875,0.59375 -0.6875,2.29688 l 0,4.8125 -1.48438,0 z m 9.63709,-10.45313 0,-1.71875 1.5,0 0,1.71875 -1.5,0 z m 0,10.45313 0,-8.8125 1.5,0 0,8.8125 -1.5,0 z m 3.84976,0 0,-8.8125 1.34375,0 0,1.25 q 0.96875,-1.45313 2.79688,-1.45313 0.79687,0 1.46875,0.29688 0.67187,0.28125 1,0.75 0.32812,0.45312 0.46875,1.09375 0.0781,0.42187 0.0781,1.45312 l 0,5.42188 -1.48437,0 0,-5.35938 q 0,-0.92187 -0.1875,-1.375 -0.17188,-0.45312 -0.625,-0.71875 -0.4375,-0.26562 -1.03125,-0.26562 -0.95313,0 -1.65625,0.60937 -0.6875,0.59375 -0.6875,2.29688 l 0,4.8125 -1.48438,0 z m 9.35584,0.73437 1.45312,0.21875 q 0.0937,0.67188 0.51563,0.96875 0.54687,0.42188 1.51562,0.42188 1.03125,0 1.59375,-0.42188 0.5625,-0.40625 0.76563,-1.15625 0.125,-0.45312 0.10937,-1.92187 -0.98437,1.15625 -2.4375,1.15625 -1.8125,0 -2.8125,-1.3125 -1,-1.3125 -1,-3.14063 0,-1.26562 0.45313,-2.32812 0.46875,-1.07813 1.32812,-1.65625 0.875,-0.57813 2.03125,-0.57813 1.5625,0 2.57813,1.26563 l 0,-1.0625 1.375,0 0,7.60937 q 0,2.0625 -0.42188,2.92188 -0.40625,0.85937 -1.32812,1.35937 -0.90625,0.5 -2.23438,0.5 -1.57812,0 -2.54687,-0.71875 -0.96875,-0.70312 -0.9375,-2.125 z m 1.23437,-5.29687 q 0,1.73437 0.6875,2.53125 0.70313,0.79687 1.73438,0.79687 1.03125,0 1.71875,-0.79687 0.70312,-0.79688 0.70312,-2.48438 0,-1.625 -0.71875,-2.4375 -0.71875,-0.82812 -1.73437,-0.82812 -0.98438,0 -1.6875,0.8125 -0.70313,0.8125 -0.70313,2.40625 z" />
    <g
       id="p46.19">
      <defs
         id="defs4116">
        <linearGradient
           y2="52.810417"
           x2="23.650894"
           y1="59.125401"
           x1="23.650826"
           spreadMethod="pad"
           gradientTransform="matrix(6.3149846,-4.5875389,4.5875389,6.3149846,0,0)"
           gradientUnits="userSpaceOnUse"
           id="p46.20">
          <stop
             id="stop4119"
             stop-color="#807a85"
             offset="0.0" />
          <stop
             id="stop4121"
             stop-color="#a9a1af"
             offset="0.8" />
          <stop
             id="stop4123"
             stop-color="#aaa2b0"
             offset="1.0" />
        </linearGradient>
      </defs>
      <path
         style="fill:url(#linearGradient4210);fill-rule:nonzero"
         id="path4125"
         d="m 365.98346,255.80968 15.71652,-11.41733 -5.79526,-7.97481 30.20472,8.51969 -1.22834,31.35434 -5.79528,-7.97479 -15.71653,11.41729 z" />
    </g>
    <path
       style="fill:#000000;fill-opacity:0;fill-rule:nonzero"
       id="path4127"
       d="m 365.98108,255.80807 22.01575,-16 17.38583,23.90552 -22.01575,16 z" />
    <g
       id="p46.21">
      <defs
         id="defs4149">
        <linearGradient
           y2="23.750214"
           x2="45.764591"
           y1="35.833977"
           x1="45.764462"
           spreadMethod="pad"
           gradientTransform="scale(12.083764,12.083764)"
           gradientUnits="userSpaceOnUse"
           id="p46.22">
          <stop
             id="stop4152"
             stop-color="#371249"
             offset="0.0" />
          <stop
             id="stop4154"
             stop-color="#491760"
             offset="0.8" />
          <stop
             id="stop4156"
             stop-color="#491761"
             offset="1.0" />
        </linearGradient>
      </defs>
      <path
         style="fill:url(#linearGradient4212);fill-rule:nonzero"
         id="path4158"
         d="m 406.99118,359.99985 0,0 c 0,-40.32114 32.68674,-73.0079 73.00787,-73.0079 l 0,0 c 19.36289,0 37.93271,7.69189 51.62436,21.38351 13.69165,13.69165 21.38355,32.26147 21.38355,51.62439 l 0,0 c 0,40.32111 -32.68677,73.00787 -73.00791,73.00787 l 0,0 c -40.32113,0 -73.00787,-32.68677 -73.00787,-73.00787 z" />
    </g>
    <path
       style="fill:#000000;fill-opacity:0;fill-rule:nonzero"
       id="path4160"
       d="m 428.37332,308.3741 103.24411,0 0,103.24408 -103.24411,0 z" />
    <path
       style="fill:#ffffff;fill-rule:nonzero"
       id="path4162"
       d="m 433.73743,367.13617 4.6875,-12.17188 1.73438,0 4.96875,12.17188 -1.82813,0 -1.42187,-3.6875 -5.09375,0 -1.32813,3.6875 -1.71875,0 z m 3.51563,-5 4.125,0 -1.26563,-3.375 q -0.57812,-1.53125 -0.85937,-2.51563 -0.23438,1.17188 -0.65625,2.32813 l -1.34375,3.5625 z m 9.18273,5 0,-8.8125 1.34375,0 0,1.32812 q 0.51563,-0.9375 0.9375,-1.23437 0.4375,-0.29688 0.96875,-0.29688 0.75,0 1.53125,0.48438 l -0.51562,1.39062 q -0.54688,-0.32812 -1.09375,-0.32812 -0.48438,0 -0.875,0.29687 -0.39063,0.29688 -0.5625,0.8125 -0.25,0.79688 -0.25,1.75 l 0,4.60938 -1.48438,0 z m 11.53602,-3.23438 1.46875,0.20313 q -0.23438,1.51562 -1.23438,2.375 -0.98437,0.85937 -2.4375,0.85937 -1.8125,0 -2.90625,-1.1875 -1.09375,-1.1875 -1.09375,-3.39062 0,-1.42188 0.46875,-2.48438 0.46875,-1.07812 1.4375,-1.60937 0.96875,-0.54688 2.10938,-0.54688 1.4375,0 2.34375,0.73438 0.90625,0.71875 1.17187,2.0625 l -1.45312,0.21875 q -0.20313,-0.89063 -0.73438,-1.32813 -0.53125,-0.45312 -1.28125,-0.45312 -1.125,0 -1.82812,0.8125 -0.70313,0.79687 -0.70313,2.54687 0,1.78125 0.67188,2.59375 0.6875,0.79688 1.78125,0.79688 0.875,0 1.46875,-0.53125 0.59375,-0.54688 0.75,-1.67188 z m 2.91406,3.23438 0,-12.17188 1.48437,0 0,4.375 q 1.04688,-1.21875 2.64063,-1.21875 0.98437,0 1.70312,0.39063 0.71875,0.375 1.03125,1.0625 0.3125,0.6875 0.3125,1.96875 l 0,5.59375 -1.48437,0 0,-5.59375 q 0,-1.10938 -0.5,-1.625 -0.48438,-0.51563 -1.35938,-0.51563 -0.67187,0 -1.26562,0.34375 -0.57813,0.34375 -0.82813,0.9375 -0.25,0.59375 -0.25,1.625 l 0,4.82813 -1.48437,0 z m 9.63708,-10.45313 0,-1.71875 1.5,0 0,1.71875 -1.5,0 z m 0,10.45313 0,-8.8125 1.5,0 0,8.8125 -1.5,0 z m 7.11539,-1.34375 0.20312,1.32812 q -0.625,0.125 -1.125,0.125 -0.8125,0 -1.26562,-0.25 -0.4375,-0.26562 -0.625,-0.67187 -0.1875,-0.42188 -0.1875,-1.76563 l 0,-5.07812 -1.09375,0 0,-1.15625 1.09375,0 0,-2.1875 1.48437,-0.89063 0,3.07813 1.51563,0 0,1.15625 -1.51563,0 0,5.15625 q 0,0.64062 0.0781,0.82812 0.0781,0.17188 0.25,0.28125 0.1875,0.10938 0.53125,0.10938 0.23437,0 0.65625,-0.0625 z m 7.57996,-1.5 1.54687,0.20312 q -0.375,1.34375 -1.35937,2.09375 -0.98438,0.75 -2.51563,0.75 -1.9375,0 -3.07812,-1.1875 -1.125,-1.20312 -1.125,-3.34375 0,-2.23437 1.14062,-3.45312 1.14063,-1.23438 2.96875,-1.23438 1.78125,0 2.89063,1.20313 1.125,1.20312 1.125,3.39062 0,0.125 -0.0156,0.39063 l -6.5625,0 q 0.0781,1.45312 0.8125,2.23437 0.75,0.76563 1.84375,0.76563 0.82813,0 1.40625,-0.42188 0.57813,-0.4375 0.92188,-1.39062 z m -4.90625,-2.40625 4.92187,0 q -0.0937,-1.10938 -0.5625,-1.67188 -0.71875,-0.85937 -1.85937,-0.85937 -1.01563,0 -1.71875,0.6875 -0.70313,0.6875 -0.78125,1.84375 z m 14.26208,2.01562 1.46875,0.20313 q -0.23437,1.51562 -1.23437,2.375 -0.98438,0.85937 -2.4375,0.85937 -1.8125,0 -2.90625,-1.1875 -1.09375,-1.1875 -1.09375,-3.39062 0,-1.42188 0.46875,-2.48438 0.46875,-1.07812 1.4375,-1.60937 0.96875,-0.54688 2.10937,-0.54688 1.4375,0 2.34375,0.73438 0.90625,0.71875 1.17188,2.0625 l -1.45313,0.21875 q -0.20312,-0.89063 -0.73437,-1.32813 -0.53125,-0.45312 -1.28125,-0.45312 -1.125,0 -1.82813,0.8125 -0.70312,0.79687 -0.70312,2.54687 0,1.78125 0.67187,2.59375 0.6875,0.79688 1.78125,0.79688 0.875,0 1.46875,-0.53125 0.59375,-0.54688 0.75,-1.67188 z m 6.17969,1.89063 0.20312,1.32812 q -0.625,0.125 -1.125,0.125 -0.8125,0 -1.26562,-0.25 -0.4375,-0.26562 -0.625,-0.67187 -0.1875,-0.42188 -0.1875,-1.76563 l 0,-5.07812 -1.09375,0 0,-1.15625 1.09375,0 0,-2.1875 1.48437,-0.89063 0,3.07813 1.51563,0 0,1.15625 -1.51563,0 0,5.15625 q 0,0.64062 0.0781,0.82812 0.0781,0.17188 0.25,0.28125 0.1875,0.10938 0.53125,0.10938 0.23437,0 0.65625,-0.0625 z m 7.3143,1.34375 0,-1.29688 q -1.01563,1.5 -2.79688,1.5 -0.76562,0 -1.45312,-0.29687 -0.67188,-0.3125 -1,-0.75 -0.32813,-0.45313 -0.46875,-1.10938 -0.0781,-0.45312 -0.0781,-1.40625 l 0,-5.45312 1.48438,0 0,4.89062 q 0,1.17188 0.0937,1.57813 0.14062,0.57812 0.59375,0.92187 0.46875,0.32813 1.14062,0.32813 0.67188,0 1.25,-0.34375 0.59375,-0.34375 0.82813,-0.9375 0.25,-0.59375 0.25,-1.71875 l 0,-4.71875 1.5,0 0,8.8125 -1.34375,0 z m 3.85583,0 0,-8.8125 1.34375,0 0,1.32812 q 0.51563,-0.9375 0.9375,-1.23437 0.4375,-0.29688 0.96875,-0.29688 0.75,0 1.53125,0.48438 l -0.51562,1.39062 q -0.54688,-0.32812 -1.09375,-0.32812 -0.48438,0 -0.875,0.29687 -0.39063,0.29688 -0.5625,0.8125 -0.25,0.79688 -0.25,1.75 l 0,4.60938 -1.48438,0 z m 11.81726,-2.84375 1.54688,0.20312 q -0.375,1.34375 -1.35938,2.09375 -0.98437,0.75 -2.51562,0.75 -1.9375,0 -3.07813,-1.1875 -1.125,-1.20312 -1.125,-3.34375 0,-2.23437 1.14063,-3.45312 1.14062,-1.23438 2.96875,-1.23438 1.78125,0 2.89062,1.20313 1.125,1.20312 1.125,3.39062 0,0.125 -0.0156,0.39063 l -6.5625,0 q 0.0781,1.45312 0.8125,2.23437 0.75,0.76563 1.84375,0.76563 0.82812,0 1.40625,-0.42188 0.57812,-0.4375 0.92187,-1.39062 z m -4.90625,-2.40625 4.92188,0 q -0.0937,-1.10938 -0.5625,-1.67188 -0.71875,-0.85937 -1.85938,-0.85937 -1.01562,0 -1.71875,0.6875 -0.70312,0.6875 -0.78125,1.84375 z" />
  </g>
</svg>
